<?xml version="1.0" encoding="UTF-8"?>
<svg version="1.1" xmlns="http://www.w3.org/2000/svg" width="447" height="559">
<path d="M0 0 C1.67293462 1.66037505 3.34010556 3.32658851 5 5 C5.55042969 5.50402344 6.10085937 6.00804687 6.66796875 6.52734375 C25.67017312 24.1617802 35.98883436 51.55776764 37 77 C37.11794677 80.34353448 37.10865908 83.65626382 37 87 C36.97164062 88.06863281 36.94328125 89.13726562 36.9140625 90.23828125 C36.50572806 98.97858272 34.69622313 106.70023841 32 115 C31.68933594 116.04285156 31.37867188 117.08570313 31.05859375 118.16015625 C29.10602547 124.49170613 26.55349344 130.02245289 23.171875 135.72265625 C21.77122261 138.01772925 21.77122261 138.01772925 22 141 C25.11730098 148.69143105 29.71318645 155.89767168 33.80078125 163.109375 C36.08256209 167.13684977 38.31550575 171.1890261 40.515625 175.26171875 C41.63872683 177.33354608 42.77678902 179.39727293 43.921875 181.45703125 C44.57301367 182.63796736 45.22405677 183.81895616 45.875 185 C46.47054687 186.0725 47.06609375 187.145 47.6796875 188.25 C49 191 49 191 49 194 C49.66 194 50.32 194 51 194 C51.27972656 194.58265625 51.55945313 195.1653125 51.84765625 195.765625 C54.72902389 201.65806815 57.88054987 207.32045499 61.25390625 212.9453125 C63.31484804 216.55080799 65.14273972 220.28547943 67 224 C67.33 141.17 67.66 58.34 68 -27 C83.18 -27 98.36 -27 114 -27 C114 87.18 114 201.36 114 319 C104.99769175 320.12528853 104.99769175 320.12528853 101.53100586 320.12939453 C100.75337387 320.13254669 99.97574188 320.13569885 99.17454529 320.13894653 C98.36284378 320.1369223 97.55114227 320.13489807 96.71484375 320.1328125 C95.85492325 320.13376923 94.99500275 320.13472595 94.10902405 320.13571167 C92.30306932 320.13638801 90.49711208 320.1345721 88.69116211 320.13037109 C85.94183859 320.12500846 83.19267793 320.13033811 80.44335938 320.13671875 C78.67968714 320.136058 76.91601501 320.1347769 75.15234375 320.1328125 C74.33861801 320.13483673 73.52489227 320.13686096 72.68650818 320.13894653 C60.09251197 320.08768852 60.09251197 320.08768852 57.23046875 317.23828125 C56.62138672 316.13033203 56.62138672 316.13033203 56 315 C55.56300781 314.25105469 55.12601562 313.50210937 54.67578125 312.73046875 C54.00095703 311.47169922 54.00095703 311.47169922 53.3125 310.1875 C52.79171875 309.22070312 52.2709375 308.25390625 51.734375 307.2578125 C50.5124415 304.96255903 49.2935737 302.66586543 48.078125 300.3671875 C47.40654111 299.09880415 46.7346617 297.83057724 46.0625 296.5625 C45.72404053 295.9236084 45.38558105 295.2847168 45.03686523 294.62646484 C42.90722948 290.63092532 40.68471423 286.70791209 38.375 282.8125 C36.14431173 279.04288746 34.09894762 275.25318753 32.1875 271.3125 C29.30692523 265.42778694 26.0200018 259.83555387 22.67480469 254.20825195 C18.53254182 247.23710761 14.65414217 240.15083138 10.8828125 232.97265625 C10.10962162 231.50247444 9.33617871 230.03242515 8.5625 228.5625 C8.17658691 227.82878174 7.79067383 227.09506348 7.39306641 226.33911133 C4.60658398 221.07086295 1.64341689 215.9300038 -1.3984375 210.8046875 C-2.9888361 208.01955045 -4.41292216 205.19766326 -5.8125 202.3125 C-9.73914201 194.27732793 -14.40475072 186.66480314 -19 179 C-21.82807632 180.12259518 -24.6439722 181.26807893 -27.453125 182.4375 C-28.71869665 182.95846296 -29.98432274 183.47929367 -31.25 184 C-31.86746094 184.26039063 -32.48492187 184.52078125 -33.12109375 184.7890625 C-36.62572797 186.21982039 -40.04335222 187.29644022 -43.74902344 188.08984375 C-44.54838318 188.26249756 -45.34774292 188.43515137 -46.17132568 188.61303711 C-46.77478821 188.74073486 -47.37825073 188.86843262 -48 189 C-47.99861731 189.99586451 -47.99861731 189.99586451 -47.99720669 191.0118475 C-47.9751517 207.14347009 -47.95858857 223.27508793 -47.94818783 239.40672207 C-47.94302482 247.20775836 -47.93598203 255.00878461 -47.92456055 262.80981445 C-47.91461385 269.60676313 -47.90814661 276.40370454 -47.90591151 283.20066029 C-47.90460437 286.80178131 -47.90151836 290.40288152 -47.89426994 294.0039959 C-47.88625636 298.01756602 -47.88600885 302.03109964 -47.88647461 306.04467773 C-47.88287933 307.24732773 -47.87928406 308.44997772 -47.87557983 309.68907166 C-47.8769545 310.77587219 -47.87832916 311.86267273 -47.87974548 312.98240662 C-47.87836279 314.40795947 -47.87836279 314.40795947 -47.87695217 315.86231136 C-48 318 -48 318 -49 319 C-50.41225046 319.0928726 -51.82908934 319.11746772 -53.24438477 319.11352539 C-54.14524307 319.11344986 -55.04610138 319.11337433 -55.97425842 319.11329651 C-56.95341721 319.10813522 -57.93257599 319.10297394 -58.94140625 319.09765625 C-59.93881332 319.0962413 -60.9362204 319.09482635 -61.96385193 319.09336853 C-65.16343124 319.08775114 -68.36294169 319.07519571 -71.5625 319.0625 C-73.72591045 319.05748724 -75.88932199 319.05292395 -78.05273438 319.04882812 C-83.36851325 319.03777607 -88.68425171 319.02102104 -94 319 C-95.26495775 316.47008449 -95.12302611 314.73268231 -95.12025452 311.90011597 C-95.12231651 310.2804744 -95.12231651 310.2804744 -95.12442017 308.62811279 C-95.11902725 306.84355682 -95.11902725 306.84355682 -95.11352539 305.02294922 C-95.11367142 303.77420013 -95.11381744 302.52545105 -95.1139679 301.23886108 C-95.11338952 297.80931337 -95.10836519 294.37982543 -95.10139394 290.9502883 C-95.09515378 287.36815662 -95.09455608 283.78602421 -95.09336853 280.20388794 C-95.09025717 273.4182475 -95.08204641 266.63262311 -95.07201904 259.84698975 C-95.06085184 252.12278784 -95.05534592 244.39858517 -95.05032361 236.6743772 C-95.03986364 220.78290883 -95.02226797 204.89145648 -95 189 C-95.92878212 188.90103172 -95.92878212 188.90103172 -96.87632751 188.80006409 C-97.68791824 188.71208054 -98.49950897 188.62409698 -99.33569336 188.53344727 C-100.14050644 188.44684341 -100.94531952 188.36023956 -101.77452087 188.27101135 C-105.29645691 187.84212184 -108.58220112 186.93212697 -112 186 C-113.3550235 190.01474107 -114.70568829 194.0309172 -116.05273438 198.04833984 C-116.50928944 199.40809384 -116.96693038 200.76748385 -117.42578125 202.12646484 C-120.18825058 210.31088604 -122.76123529 218.50824533 -125.09277344 226.82861328 C-126.34992249 231.22322206 -127.77748752 235.54869576 -129.25 239.875 C-129.8555352 241.67445681 -130.46100103 243.47393696 -131.06640625 245.2734375 C-131.53651123 246.6651416 -131.53651123 246.6651416 -132.01611328 248.08496094 C-133.74934709 253.22014993 -135.46999998 258.35953005 -137.1875 263.5 C-137.53063232 264.52697998 -137.87376465 265.55395996 -138.22729492 266.61206055 C-140.21513091 272.58236786 -142.12334715 278.56817089 -143.9375 284.59375 C-145.68553495 290.19774441 -147.57159454 295.75615072 -149.45141602 301.31713867 C-149.87958618 302.58908081 -149.87958618 302.58908081 -150.31640625 303.88671875 C-150.69454468 305.00373169 -150.69454468 305.00373169 -151.08032227 306.14331055 C-152.4533074 310.40805678 -153.71259333 314.70864443 -155 319 C-171.5 319 -188 319 -205 319 C-204.26870177 315.34350887 -203.4588241 312.11948554 -202.29296875 308.61328125 C-201.95330078 307.59169922 -201.61363281 306.57011719 -201.26367188 305.51757812 C-200.7309668 303.93106445 -200.7309668 303.93106445 -200.1875 302.3125 C-199.84396484 301.27416016 -199.50042969 300.23582031 -199.14648438 299.16601562 C-197.22253207 293.40859737 -195.14348929 287.75861536 -192.85083008 282.13842773 C-191.83537797 279.5862484 -191.01267257 277.01322451 -190.25 274.375 C-186.22355357 260.96408 -181.7055572 247.6869184 -177 234.5 C-173.59999808 224.96645884 -170.42833383 215.35865725 -167.24365234 205.75146484 C-164.99681812 198.9739119 -162.74659959 192.19749058 -160.49273682 185.42227173 C-159.7020893 183.04388679 -158.91327216 180.66489998 -158.12451172 178.28588867 C-157.6286743 176.794728 -157.13274722 175.30359713 -156.63671875 173.8125 C-156.41510574 173.14249466 -156.19349274 172.47248932 -155.96516418 171.78218079 C-154.41928064 167.14402207 -152.73754605 162.5699145 -151 158 C-151.99 157.67 -152.98 157.34 -154 157 C-159 151.53488372 -159 151.53488372 -159 149 C-159.66 149 -160.32 149 -161 149 C-162.53732837 146.9039177 -163.9386254 144.8252844 -165.3125 142.625 C-165.71694336 141.98232178 -166.12138672 141.33964355 -166.53808594 140.67749023 C-182.25191366 115.41230579 -186.55396381 86.33808503 -180.54345703 57.33007812 C-176.50379553 40.00998406 -168.12823369 24.73932763 -157 11 C-156.44183594 10.30003906 -155.88367188 9.60007813 -155.30859375 8.87890625 C-152.19845373 5.10288769 -148.91787316 1.93840487 -145 -1 C-144.34 -1 -143.68 -1 -143 -1 C-142.505 -2.485 -142.505 -2.485 -142 -4 C-139.75981113 -5.71935235 -137.55110088 -7.28131522 -135.1875 -8.8125 C-134.50316895 -9.25754883 -133.81883789 -9.70259766 -133.11376953 -10.16113281 C-92.11556378 -36.44816145 -36.31883591 -33.33789293 0 0 Z M-42 25 C-38.90899575 32.46992693 -35.01343378 39.34948705 -30.96533203 46.32470703 C-26.54331301 53.99893428 -22.47072886 61.87269405 -18.33642578 69.70410156 C-15.27510476 75.49776583 -12.16126238 81.26013929 -9 87 C-8.67 87 -8.34 87 -8 87 C-7.55398516 76.54342991 -7.69406511 67.75917479 -12 58 C-12.350625 57.16339844 -12.70125 56.32679688 -13.0625 55.46484375 C-16.41373512 48.12238069 -22.09971479 37.00963246 -30 34 C-30 33.34 -30 32.68 -30 32 C-32.17458278 30.178958 -32.17458278 30.178958 -34.875 28.375 C-35.77992188 27.74335938 -36.68484375 27.11171875 -37.6171875 26.4609375 C-39.81833706 24.82576895 -39.81833706 24.82576895 -42 25 Z M-107 26 C-111.68559969 29.38339829 -116.05311436 32.74950778 -120 37 C-120.55558594 37.58523437 -121.11117187 38.17046875 -121.68359375 38.7734375 C-135.13337786 53.40911655 -138.72023424 70.29717462 -138.14941406 89.57861328 C-137.76238664 95.85073421 -136.49545838 101.75681243 -133 107 C-128.64340399 94.58860431 -124.35279039 82.15953744 -120.23266602 69.66748047 C-118.21462588 63.57239714 -116.13720223 57.50101914 -114.015625 51.44140625 C-113.50098117 49.96609123 -112.98641401 48.49074947 -112.47192383 47.01538086 C-111.70848011 44.82665226 -110.94246511 42.63900838 -110.1680603 40.45413208 C-109.44791844 38.42217892 -108.73683449 36.38725443 -108.02734375 34.3515625 C-107.61218506 33.17416504 -107.19702637 31.99676758 -106.76928711 30.78369141 C-105.68546822 28.07130929 -105.68546822 28.07130929 -107 26 Z M-48 125 C-48 130.94 -48 136.88 -48 143 C-45.69 142.01 -43.38 141.02 -41 140 C-41.60355408 136.14974121 -42.76772603 133.13898841 -44.5625 129.6875 C-45.01753906 128.80449219 -45.47257813 127.92148438 -45.94140625 127.01171875 C-46.46541016 126.01591797 -46.46541016 126.01591797 -47 125 C-47.33 125 -47.66 125 -48 125 Z M-96 133 C-96.99 136.3 -97.98 139.6 -99 143 C-97.68 143.33 -96.36 143.66 -95 144 C-95 140.37 -95 136.74 -95 133 C-95.33 133 -95.66 133 -96 133 Z " fill="#A1AD94" transform="translate(242,108)"/>
<path d="M0 0 C0.76166977 0.00222061 1.52333954 0.00444122 2.30809021 0.00672913 C3.16890701 0.00680466 4.02972382 0.00688019 4.91662598 0.00695801 C5.8520372 0.01211929 6.78744843 0.01728058 7.75120544 0.02259827 C8.70422043 0.02401321 9.65723541 0.02542816 10.63912964 0.02688599 C13.69605085 0.032503 16.75289996 0.04505836 19.80979919 0.05775452 C21.87685543 0.06276733 23.94391281 0.06733061 26.01097107 0.07142639 C31.08977507 0.08247795 36.16852489 0.09975397 41.24729919 0.12025452 C41.71780701 1.0728717 42.18831482 2.02548889 42.67308044 3.00697327 C43.30187835 4.27395413 43.93079068 5.5408782 44.55979919 6.80775452 C45.0228949 7.74651428 45.0228949 7.74651428 45.49534607 8.70423889 C47.27110979 12.27445859 49.14262648 15.73335043 51.24729919 19.12025452 C49.92729919 19.12025452 48.60729919 19.12025452 47.24729919 19.12025452 C48.23729919 24.07025452 48.23729919 24.07025452 49.24729919 29.12025452 C49.90729919 29.12025452 50.56729919 29.12025452 51.24729919 29.12025452 C52.7574205 31.88568648 54.25360068 34.65842258 55.74729919 37.43275452 C56.39118591 38.61127991 56.39118591 38.61127991 57.04808044 39.81361389 C57.45413513 40.57093811 57.86018982 41.32826233 58.27854919 42.10853577 C58.65559998 42.80503235 59.03265076 43.50152893 59.42112732 44.21913147 C60.24729919 46.12025452 60.24729919 46.12025452 60.24729919 49.12025452 C60.90729919 49.12025452 61.56729919 49.12025452 62.24729919 49.12025452 C63.23729919 52.42025452 64.22729919 55.72025452 65.24729919 59.12025452 C65.90729919 59.12025452 66.56729919 59.12025452 67.24729919 59.12025452 C74.08389137 71.71801988 74.08389137 71.71801988 76.49729919 76.62025452 C78.14964701 80.06030961 78.14964701 80.06030961 79.99729919 82.93275452 C81.24729919 85.12025452 81.24729919 85.12025452 81.24729919 88.12025452 C81.90729919 88.12025452 82.56729919 88.12025452 83.24729919 88.12025452 C83.90729919 89.44025452 84.56729919 90.76025452 85.24729919 92.12025452 C86.23729919 90.63525452 86.23729919 90.63525452 87.24729919 89.12025452 C87.90729919 89.12025452 88.56729919 89.12025452 89.24729919 89.12025452 C89.76679138 90.17084045 90.28628357 91.22142639 90.82151794 92.30384827 C95.89226158 102.53618448 95.89226158 102.53618448 101.43479919 112.51869202 C102.24729919 114.12025452 102.24729919 114.12025452 102.24729919 116.12025452 C102.90729919 116.12025452 103.56729919 116.12025452 104.24729919 116.12025452 C104.59792419 117.21337952 104.94854919 118.30650452 105.30979919 119.43275452 C107.05923113 124.2543596 109.88081286 128.11345183 112.91917419 132.21400452 C114.46861215 135.60453933 113.94039713 137.39963799 113.30735779 140.9747467 C113.18998915 145.16757437 115.5979608 148.49157887 117.68479919 151.99525452 C118.54072656 153.49090174 119.39374434 154.98821904 120.24339294 156.48744202 C120.81851624 157.46366516 120.81851624 157.46366516 121.40525818 158.45960999 C122.24729919 160.12025452 122.24729919 160.12025452 122.24729919 162.12025452 C122.90729919 162.12025452 123.56729919 162.12025452 124.24729919 162.12025452 C124.91849468 163.57650902 125.58411727 165.03533319 126.24729919 166.49525452 C126.61854919 167.30736389 126.98979919 168.11947327 127.37229919 168.95619202 C128.24729919 171.12025452 128.24729919 171.12025452 128.24729919 173.12025452 C128.90729919 173.12025452 129.56729919 173.12025452 130.24729919 173.12025452 C131.58549418 175.74287772 132.91801429 178.36812051 134.24729919 180.99525452 C134.62886169 181.7416217 135.01042419 182.48798889 135.40354919 183.25697327 C135.76448669 183.97240295 136.12542419 184.68783264 136.49729919 185.42494202 C136.83245544 186.08478088 137.16761169 186.74461975 137.51292419 187.42445374 C138.24729919 189.12025452 138.24729919 189.12025452 138.24729919 191.12025452 C138.90729919 191.12025452 139.56729919 191.12025452 140.24729919 191.12025452 C141.25714649 193.03175119 142.25484414 194.94967021 143.24729919 196.87025452 C143.80417419 197.93759827 144.36104919 199.00494202 144.93479919 200.10462952 C146.24729919 203.12025452 146.24729919 203.12025452 146.24729919 207.12025452 C146.90729919 207.12025452 147.56729919 207.12025452 148.24729919 207.12025452 C149.53961146 209.53657791 150.83117111 211.95329848 152.12229919 214.37025452 C152.66950623 215.39312561 152.66950623 215.39312561 153.22776794 216.43666077 C153.93173807 217.75500481 154.63332509 219.07462479 155.33226013 220.39564514 C156.04638319 221.74158037 156.77327968 223.08074062 157.50511169 224.41712952 C158.24729919 226.12025452 158.24729919 226.12025452 158.24729919 229.12025452 C158.90729919 229.12025452 159.56729919 229.12025452 160.24729919 229.12025452 C160.90729919 230.44025452 161.56729919 231.76025452 162.24729919 233.12025452 C162.57729919 231.47025452 162.90729919 229.82025452 163.24729919 228.12025452 C163.90729919 228.12025452 164.56729919 228.12025452 165.24729919 228.12025452 C167.02365182 231.30470803 168.79236265 234.49334506 170.55979919 237.68275452 C171.05931091 238.57800842 171.55882263 239.47326233 172.07347107 240.39564514 C179.24729919 253.36554632 179.24729919 253.36554632 179.24729919 258.12025452 C179.90729919 258.12025452 180.56729919 258.12025452 181.24729919 258.12025452 C192.2504765 277.91774919 192.2504765 277.91774919 196.83323669 287.37806702 C198.96147575 291.50520464 201.43494606 295.41512816 203.92698669 299.33119202 C205.42460053 302.49479048 205.50232343 304.66212593 205.24729919 308.12025452 C204.58729919 308.12025452 203.92729919 308.12025452 203.24729919 308.12025452 C203.10292419 309.41962952 202.95854919 310.71900452 202.80979919 312.05775452 C202.37229919 315.99525452 202.37229919 315.99525452 201.24729919 317.12025452 C198.37205547 317.22150895 195.52137172 317.25993272 192.64573669 317.25306702 C191.77591156 317.25402374 190.90608643 317.25498047 190.00990295 317.25596619 C188.16211373 317.25664846 186.31432213 317.2547909 184.46653748 317.25062561 C181.65512085 317.2453165 178.84386681 317.25054888 176.03245544 317.25697327 C174.23688218 317.25631174 172.44130901 317.25502903 170.64573669 317.25306702 C169.39220901 317.25610336 169.39220901 317.25610336 168.11335754 317.25920105 C155.34056033 317.20868889 155.34056033 317.20868889 152.47776794 314.35853577 C152.07171326 313.61990295 151.66565857 312.88127014 151.24729919 312.12025452 C150.81030701 311.3713092 150.37331482 310.62236389 149.92308044 309.85072327 C149.24825623 308.59195374 149.24825623 308.59195374 148.55979919 307.30775452 C147.77862732 305.8575592 147.77862732 305.8575592 146.98167419 304.37806702 C145.75974069 302.08281355 144.54087289 299.78611994 143.32542419 297.48744202 C142.6538403 296.21905867 141.9819609 294.95083175 141.30979919 293.68275452 C140.97133972 293.04386292 140.63288025 292.40497131 140.28416443 291.74671936 C138.15452867 287.75117983 135.93201343 283.8281666 133.62229919 279.93275452 C131.39161092 276.16314198 129.34624682 272.37344205 127.43479919 268.43275452 C124.55422443 262.54804146 121.26730099 256.95580839 117.92210388 251.32850647 C113.77984102 244.35736212 109.90144136 237.2710859 106.13011169 230.09291077 C105.35692081 228.62272896 104.5834779 227.15267967 103.80979919 225.68275452 C103.42388611 224.94903625 103.03797302 224.21531799 102.6403656 223.45936584 C99.85388317 218.19111746 96.89071608 213.05025832 93.84886169 207.92494202 C92.2584631 205.13980496 90.83437704 202.31791778 89.43479919 199.43275452 C85.50815719 191.39758245 80.84254847 183.78505766 76.24729919 176.12025452 C73.41922287 177.2428497 70.60332699 178.38833344 67.79417419 179.55775452 C66.52860255 180.07871748 65.26297645 180.59954819 63.99729919 181.12025452 C63.37983826 181.38064514 62.76237732 181.64103577 62.12620544 181.90931702 C58.62157123 183.3400749 55.20394697 184.41669474 51.49827576 185.21009827 C50.69891602 185.38275208 49.89955627 185.55540588 49.07597351 185.73329163 C48.47251099 185.86098938 47.86904846 185.98868713 47.24729919 186.12025452 C47.24822099 186.78416419 47.24914278 187.44807386 47.25009251 188.13210201 C47.27214749 204.26372461 47.28871063 220.39534245 47.29911137 236.52697659 C47.30427437 244.32801288 47.31131716 252.12903912 47.32273865 259.93006897 C47.33268534 266.72701765 47.33915259 273.52395905 47.34138769 280.3209148 C47.34269482 283.92203583 47.34578083 287.52313604 47.35302925 291.12425041 C47.36104284 295.13782054 47.36129034 299.15135416 47.36082458 303.16493225 C47.36441986 304.36758224 47.36801514 305.57023224 47.37171936 306.80932617 C47.3703447 307.89612671 47.36897003 308.98292725 47.36755371 310.10266113 C47.3684755 311.0530297 47.3693973 312.00339827 47.37034702 312.98256588 C47.24729919 315.12025452 47.24729919 315.12025452 46.24729919 316.12025452 C44.83504874 316.21312712 43.41820985 316.23772223 42.00291443 316.23377991 C40.65162697 316.23366661 40.65162697 316.23366661 39.27304077 316.23355103 C38.29388199 316.22838974 37.31472321 316.22322845 36.30589294 316.21791077 C35.30848587 316.21649582 34.3110788 316.21508087 33.28344727 316.21362305 C30.08386796 316.20800566 26.88435751 316.19545023 23.68479919 316.18275452 C21.52138874 316.17774176 19.3579772 316.17317846 17.19456482 316.16908264 C11.87878594 316.15803059 6.56304748 316.14127555 1.24729919 316.12025452 C0.02427171 313.67419955 0.12149347 312.10097088 0.12031555 309.3659668 C0.11749573 308.36016571 0.1146759 307.35436462 0.11177063 306.31808472 C0.11379486 305.20857956 0.11581909 304.0990744 0.11790466 302.95594788 C0.11615234 301.78900391 0.11440002 300.62205994 0.1125946 299.41975403 C0.10892942 296.19505996 0.10982135 292.9704065 0.11297369 289.745713 C0.11552409 286.31437141 0.11314939 282.88303238 0.11158752 279.45169067 C0.10976016 273.62969996 0.11217293 267.80772183 0.1169281 261.98573303 C0.12165638 256.13220884 0.12185483 250.27871019 0.1169281 244.42518616 C0.08504106 205.64474126 0.40398696 166.8929675 1.24729919 128.12025452 C0.58729919 128.12025452 -0.07270081 128.12025452 -0.75270081 128.12025452 C-0.70242737 128.98521545 -0.65215393 129.85017639 -0.60035706 130.74134827 C-0.76814003 134.46268863 -1.65336848 136.8086892 -3.19020081 140.18275452 C-4.84538921 143.84680405 -6.11762934 147.14193326 -6.75270081 151.12025452 C-7.41270081 151.12025452 -8.07270081 151.12025452 -8.75270081 151.12025452 C-8.99053284 152.62652405 -8.99053284 152.62652405 -9.23316956 154.16322327 C-10.77222295 163.35915199 -13.03049953 171.52829584 -16.75270081 180.12025452 C-24.29724311 178.2903017 -30.28654806 175.37267662 -36.75270081 171.12025452 C-37.96699768 170.33714905 -37.96699768 170.33714905 -39.20582581 169.53822327 C-47.27582862 164.2606552 -47.27582862 164.2606552 -50.75270081 161.12025452 C-50.75270081 160.46025452 -50.75270081 159.80025452 -50.75270081 159.12025452 C-52.07270081 158.46025452 -53.39270081 157.80025452 -54.75270081 157.12025452 C-54.10602556 154.44960833 -53.37859873 151.82700043 -52.55348206 149.20619202 C-52.31661682 148.45354065 -52.07975159 147.70088928 -51.83570862 146.9254303 C-51.58144104 146.12347229 -51.32717346 145.32151428 -51.06520081 144.49525452 C-50.80190979 143.66364807 -50.53861877 142.83204163 -50.26734924 141.97523499 C-48.38428809 136.05241571 -46.46198276 130.14328656 -44.50270081 124.24525452 C-44.13398865 123.13222961 -44.13398865 123.13222961 -43.75782776 121.99671936 C-42.78013078 119.07205395 -41.77636777 116.17876906 -40.61988831 113.31947327 C-39.55691958 110.62374627 -39.1520236 107.9820679 -38.75270081 105.12025452 C-38.09270081 105.12025452 -37.43270081 105.12025452 -36.75270081 105.12025452 C-36.83004456 103.61785217 -36.83004456 103.61785217 -36.90895081 102.08509827 C-36.74295631 97.87298784 -35.75228733 94.55767096 -34.25270081 90.68275452 C-33.69184101 89.16536101 -33.13338004 87.64707936 -32.57691956 86.12806702 C-32.27834045 85.31756897 -31.97976135 84.50707092 -31.6721344 83.67201233 C-30.04772327 79.16368913 -28.56413129 74.60900407 -27.06520081 70.05775452 C-22.09302067 55.03350004 -16.91796367 40.07894718 -11.75270081 25.12025452 C-11.09270081 25.12025452 -10.43270081 25.12025452 -9.75270081 25.12025452 C-9.75270081 24.13025452 -9.75270081 23.14025452 -9.75270081 22.12025452 C-10.74270081 21.79025452 -11.73270081 21.46025452 -12.75270081 21.12025452 C-11.10270081 21.12025452 -9.45270081 21.12025452 -7.75270081 21.12025452 C-7.48457581 19.86212952 -7.21645081 18.60400452 -6.94020081 17.30775452 C-3.13580568 0.21515069 -3.13580568 0.21515069 0 0 Z M47.24729919 122.12025452 C47.24729919 128.06025452 47.24729919 134.00025452 47.24729919 140.12025452 C49.55729919 139.13025452 51.86729919 138.14025452 54.24729919 137.12025452 C53.64374511 133.26999572 52.47957317 130.25924292 50.68479919 126.80775452 C50.22976013 125.9247467 49.77472107 125.04173889 49.30589294 124.13197327 C48.78188904 123.13617249 48.78188904 123.13617249 48.24729919 122.12025452 C47.91729919 122.12025452 47.58729919 122.12025452 47.24729919 122.12025452 Z " fill="#A0AC93" transform="translate(146.75270080566406,110.87974548339844)"/>
<path d="M0 0 C0.76166977 0.00222061 1.52333954 0.00444122 2.30809021 0.00672913 C3.16890701 0.00680466 4.02972382 0.00688019 4.91662598 0.00695801 C5.8520372 0.01211929 6.78744843 0.01728058 7.75120544 0.02259827 C8.70422043 0.02401321 9.65723541 0.02542816 10.63912964 0.02688599 C13.69605085 0.032503 16.75289996 0.04505836 19.80979919 0.05775452 C21.87685543 0.06276733 23.94391281 0.06733061 26.01097107 0.07142639 C31.08977507 0.08247795 36.16852489 0.09975397 41.24729919 0.12025452 C41.71780701 1.0728717 42.18831482 2.02548889 42.67308044 3.00697327 C43.30187835 4.27395413 43.93079068 5.5408782 44.55979919 6.80775452 C45.0228949 7.74651428 45.0228949 7.74651428 45.49534607 8.70423889 C47.27110979 12.27445859 49.14262648 15.73335043 51.24729919 19.12025452 C49.92729919 19.12025452 48.60729919 19.12025452 47.24729919 19.12025452 C47.90729919 22.42025452 48.56729919 25.72025452 49.24729919 29.12025452 C49.90729919 29.12025452 50.56729919 29.12025452 51.24729919 29.12025452 C52.7574205 31.88568648 54.25360068 34.65842258 55.74729919 37.43275452 C56.39118591 38.61127991 56.39118591 38.61127991 57.04808044 39.81361389 C57.45413513 40.57093811 57.86018982 41.32826233 58.27854919 42.10853577 C58.65559998 42.80503235 59.03265076 43.50152893 59.42112732 44.21913147 C60.24729919 46.12025452 60.24729919 46.12025452 60.24729919 49.12025452 C60.90729919 49.12025452 61.56729919 49.12025452 62.24729919 49.12025452 C63.23729919 52.42025452 64.22729919 55.72025452 65.24729919 59.12025452 C65.90729919 59.12025452 66.56729919 59.12025452 67.24729919 59.12025452 C74.08389137 71.71801988 74.08389137 71.71801988 76.49729919 76.62025452 C78.14964701 80.06030961 78.14964701 80.06030961 79.99729919 82.93275452 C81.24729919 85.12025452 81.24729919 85.12025452 81.24729919 88.12025452 C81.90729919 88.12025452 82.56729919 88.12025452 83.24729919 88.12025452 C83.90729919 89.44025452 84.56729919 90.76025452 85.24729919 92.12025452 C86.23729919 90.63525452 86.23729919 90.63525452 87.24729919 89.12025452 C87.90729919 89.12025452 88.56729919 89.12025452 89.24729919 89.12025452 C89.76679138 90.17084045 90.28628357 91.22142639 90.82151794 92.30384827 C95.89226158 102.53618448 95.89226158 102.53618448 101.43479919 112.51869202 C102.24729919 114.12025452 102.24729919 114.12025452 102.24729919 116.12025452 C102.90729919 116.12025452 103.56729919 116.12025452 104.24729919 116.12025452 C104.59792419 117.21337952 104.94854919 118.30650452 105.30979919 119.43275452 C107.05923113 124.2543596 109.88081286 128.11345183 112.91917419 132.21400452 C114.46861215 135.60453933 113.94039713 137.39963799 113.30735779 140.9747467 C113.18998915 145.16757437 115.5979608 148.49157887 117.68479919 151.99525452 C118.54072656 153.49090174 119.39374434 154.98821904 120.24339294 156.48744202 C120.81851624 157.46366516 120.81851624 157.46366516 121.40525818 158.45960999 C122.24729919 160.12025452 122.24729919 160.12025452 122.24729919 162.12025452 C122.90729919 162.12025452 123.56729919 162.12025452 124.24729919 162.12025452 C124.91849468 163.57650902 125.58411727 165.03533319 126.24729919 166.49525452 C126.61854919 167.30736389 126.98979919 168.11947327 127.37229919 168.95619202 C128.24729919 171.12025452 128.24729919 171.12025452 128.24729919 173.12025452 C128.90729919 173.12025452 129.56729919 173.12025452 130.24729919 173.12025452 C131.58549418 175.74287772 132.91801429 178.36812051 134.24729919 180.99525452 C134.62886169 181.7416217 135.01042419 182.48798889 135.40354919 183.25697327 C135.76448669 183.97240295 136.12542419 184.68783264 136.49729919 185.42494202 C136.83245544 186.08478088 137.16761169 186.74461975 137.51292419 187.42445374 C138.24729919 189.12025452 138.24729919 189.12025452 138.24729919 191.12025452 C138.90729919 191.12025452 139.56729919 191.12025452 140.24729919 191.12025452 C141.25714649 193.03175119 142.25484414 194.94967021 143.24729919 196.87025452 C143.80417419 197.93759827 144.36104919 199.00494202 144.93479919 200.10462952 C146.24729919 203.12025452 146.24729919 203.12025452 146.24729919 207.12025452 C146.90729919 207.12025452 147.56729919 207.12025452 148.24729919 207.12025452 C149.53961146 209.53657791 150.83117111 211.95329848 152.12229919 214.37025452 C152.66950623 215.39312561 152.66950623 215.39312561 153.22776794 216.43666077 C153.93173807 217.75500481 154.63332509 219.07462479 155.33226013 220.39564514 C156.04638319 221.74158037 156.77327968 223.08074062 157.50511169 224.41712952 C158.24729919 226.12025452 158.24729919 226.12025452 158.24729919 229.12025452 C158.90729919 229.12025452 159.56729919 229.12025452 160.24729919 229.12025452 C160.90729919 230.44025452 161.56729919 231.76025452 162.24729919 233.12025452 C162.57729919 231.47025452 162.90729919 229.82025452 163.24729919 228.12025452 C163.90729919 228.12025452 164.56729919 228.12025452 165.24729919 228.12025452 C167.02365182 231.30470803 168.79236265 234.49334506 170.55979919 237.68275452 C171.05931091 238.57800842 171.55882263 239.47326233 172.07347107 240.39564514 C179.24729919 253.36554632 179.24729919 253.36554632 179.24729919 258.12025452 C179.90729919 258.12025452 180.56729919 258.12025452 181.24729919 258.12025452 C192.2504765 277.91774919 192.2504765 277.91774919 196.83323669 287.37806702 C198.96147575 291.50520464 201.43494606 295.41512816 203.92698669 299.33119202 C205.42460053 302.49479048 205.50232343 304.66212593 205.24729919 308.12025452 C204.58729919 308.12025452 203.92729919 308.12025452 203.24729919 308.12025452 C203.10292419 309.41962952 202.95854919 310.71900452 202.80979919 312.05775452 C202.37229919 315.99525452 202.37229919 315.99525452 201.24729919 317.12025452 C195.64014016 317.53388219 190.03218787 317.64824631 184.41160583 317.74501038 C182.51881139 317.78665477 180.62634247 317.84800989 178.73484802 317.92958069 C163.04090087 318.5955676 163.04090087 318.5955676 158.7888031 315.09803772 C157.21737452 312.48321036 156.21510738 310.007208 155.24729919 307.12025452 C154.52719828 305.83561186 153.77494261 304.5680828 152.98167419 303.32728577 C152.32683044 302.20709045 151.67198669 301.08689514 150.99729919 299.93275452 C149.99956482 298.24085999 149.99956482 298.24085999 148.98167419 296.51478577 C147.19145661 293.01095901 146.19327148 289.91862284 145.24729919 286.12025452 C144.58729919 286.12025452 143.92729919 286.12025452 143.24729919 286.12025452 C142.81417419 285.06837952 142.38104919 284.01650452 141.93479919 282.93275452 C140.60115889 279.82092714 139.05797604 276.98715953 137.24729919 274.12025452 C135.0411448 270.53525362 133.09899878 266.90080784 131.24729919 263.12025452 C130.69042419 262.04775452 130.13354919 260.97525452 129.55979919 259.87025452 C128.24729919 257.12025452 128.24729919 257.12025452 128.24729919 255.12025452 C127.58729919 255.12025452 126.92729919 255.12025452 126.24729919 255.12025452 C125.25729919 251.65525452 125.25729919 251.65525452 124.24729919 248.12025452 C123.58729919 248.12025452 122.92729919 248.12025452 122.24729919 248.12025452 C121.69042419 246.98587952 121.13354919 245.85150452 120.55979919 244.68275452 C118.59573675 240.72647102 116.43773197 236.90818982 114.20042419 233.10072327 C113.24729919 231.12025452 113.24729919 231.12025452 113.24729919 228.12025452 C112.25729919 227.79025452 111.26729919 227.46025452 110.24729919 227.12025452 C109.513061 225.2179101 108.78898148 223.31046046 108.13792419 221.37806702 C107.20019169 219.00083287 106.03042608 217.06113022 104.62229919 214.93275452 C102.70230665 212.00952263 101.5802233 209.67144499 101.24729919 206.12025452 C100.58729919 206.12025452 99.92729919 206.12025452 99.24729919 206.12025452 C99.03685974 205.61486145 98.82642029 205.10946838 98.60960388 204.58876038 C95.16580349 196.5648485 90.8983875 189.01962386 86.67308044 181.38783264 C86.10460388 180.35207092 85.53612732 179.3163092 84.95042419 178.24916077 C84.43125427 177.31144836 83.91208435 176.37373596 83.37718201 175.40760803 C82.24729919 173.12025452 82.24729919 173.12025452 82.24729919 171.12025452 C80.26729919 171.45025452 78.28729919 171.78025452 76.24729919 172.12025452 C72.24729919 165.37025452 72.24729919 165.37025452 72.24729919 163.12025452 C71.58729919 163.12025452 70.92729919 163.12025452 70.24729919 163.12025452 C69.25729919 159.65525452 69.25729919 159.65525452 68.24729919 156.12025452 C67.58729919 156.12025452 66.92729919 156.12025452 66.24729919 156.12025452 C66.01655701 155.57498108 65.78581482 155.02970764 65.54808044 154.46791077 C63.38315483 149.46205511 60.9817693 144.79833101 58.10276794 140.16322327 C57.0726319 137.70312669 57.34575456 136.58152668 58.24729919 134.12025452 C58.90729919 134.12025452 59.56729919 134.12025452 60.24729919 134.12025452 C60.24729919 132.80025452 60.24729919 131.48025452 60.24729919 130.12025452 C59.58729919 130.12025452 58.92729919 130.12025452 58.24729919 130.12025452 C57.55979919 128.74525452 56.87229919 127.37025452 56.18479919 125.99525452 C55.49643982 124.62240295 55.49643982 124.62240295 54.79417419 123.22181702 C53.73380413 121.09572148 52.68214919 118.96526349 51.63792419 116.83119202 C48.67022269 110.80049583 45.59360079 104.91350999 42.18479919 99.12025452 C38.79043777 93.33135797 36.11346671 87.45120659 33.55198669 81.24134827 C32.22925833 78.07709687 30.75644838 75.04407897 29.19261169 71.99525452 C28.07910426 69.78664473 27.02787077 67.55627431 25.99729919 65.30775452 C25.66214294 64.5794342 25.32698669 63.85111389 24.98167419 63.10072327 C24.24729919 61.12025452 24.24729919 61.12025452 24.24729919 58.12025452 C23.25729919 58.12025452 22.26729919 58.12025452 21.24729919 58.12025452 C21.14417419 59.06900452 21.04104919 60.01775452 20.93479919 60.99525452 C19.69397614 69.4630335 16.44657956 77.56954842 13.72996521 85.65370178 C11.27737837 92.97230525 8.93474312 100.32439726 6.60765076 107.68373108 C5.18741058 112.17431707 3.75447594 116.65782924 2.24729919 121.12025452 C1.91729919 121.12025452 1.58729919 121.12025452 1.24729919 121.12025452 C1.24729919 86.80025452 1.24729919 52.48025452 1.24729919 17.12025452 C-3.20770081 18.60525452 -3.20770081 18.60525452 -7.75270081 20.12025452 C-6.61015195 15.4621707 -5.42450175 10.81743356 -4.19020081 6.18275452 C-3.94141174 5.24560608 -3.69262268 4.30845764 -3.43629456 3.34291077 C-2.46007046 0.16878784 -2.46007046 0.16878784 0 0 Z " fill="#858F76" transform="translate(146.75270080566406,110.87974548339844)"/>
<path d="M0 0 C3.05009472 2.03339648 3.6730604 2.84346689 5.1875 6 C5.53167969 6.70125 5.87585938 7.4025 6.23046875 8.125 C7 10 7 10 7 12 C7.66 12 8.32 12 9 12 C9 13.32 9 14.64 9 16 C8.01 16.495 8.01 16.495 7 17 C7.85923754 21.57543988 10.29847931 25.17769305 12.625 29.1484375 C14.06913743 32.14338161 14.61214124 34.71289698 15 38 C15.66 38 16.32 38 17 38 C17.66 40.31 18.32 42.62 19 45 C19.66 45 20.32 45 21 45 C25 51.75 25 51.75 25 54 C26.98 53.67 28.96 53.34 31 53 C31.27150879 53.52319824 31.54301758 54.04639648 31.82275391 54.58544922 C33.08694389 57.01699533 34.355241 59.44635728 35.625 61.875 C36.0799585 62.74600342 36.53491699 63.61700684 37.00366211 64.5144043 C39.38681752 69.04506492 41.8314293 73.47884503 44.5625 77.8125 C46.65970217 81.18574631 47.78685379 83.95022203 48 88 C48.66 88 49.32 88 50 88 C50.39832031 88.80824219 50.79664063 89.61648438 51.20703125 90.44921875 C51.73683594 91.51785156 52.26664062 92.58648437 52.8125 93.6875 C53.33457031 94.74324219 53.85664063 95.79898438 54.39453125 96.88671875 C55.42068343 98.8766051 56.50617215 100.83767925 57.6640625 102.75390625 C58.93687879 104.89387516 59.40453436 106.61813743 60 109 C60.66 109.33 61.32 109.66 62 110 C63.23411777 112.2761323 64.38661213 114.54107815 65.5 116.875 C67.18910421 120.37335391 68.83879636 123.75819453 71 127 C71 127.99 71 128.98 71 130 C71.66 130 72.32 130 73 130 C73.99 133.465 73.99 133.465 75 137 C75.66 137 76.32 137 77 137 C77.60416667 138.20833333 78.20833333 139.41666667 78.8125 140.625 C79.17859375 141.35589844 79.5446875 142.08679688 79.921875 142.83984375 C80.80966164 144.61863365 81.68745476 146.40240771 82.5625 148.1875 C84.23430142 151.45841582 86.1157122 154.56593026 88.04296875 157.69140625 C90.08911977 161.11150706 91.51835768 164.02645088 92 168 C92.66 168 93.32 168 94 168 C94.35191406 168.72703125 94.70382812 169.4540625 95.06640625 170.203125 C98.2585094 176.70401392 101.66429355 182.9983382 105.38671875 189.2109375 C107.05019003 192.08676921 108.5427889 195.0151386 110 198 C106.6875 198.25 106.6875 198.25 103 198 C100.59768111 195.36345502 98.99174516 192.31984555 97.3125 189.1875 C96.53132813 187.73730469 96.53132813 187.73730469 95.734375 186.2578125 C94.5124415 183.96255903 93.2935737 181.66586543 92.078125 179.3671875 C91.40654111 178.09880415 90.7346617 176.83057724 90.0625 175.5625 C89.72404053 174.9236084 89.38558105 174.2847168 89.03686523 173.62646484 C86.90722948 169.63092532 84.68471423 165.70791209 82.375 161.8125 C80.14431173 158.04288746 78.09894762 154.25318753 76.1875 150.3125 C73.30692523 144.42778694 70.0200018 138.83555387 66.67480469 133.20825195 C62.53254182 126.23710761 58.65414217 119.15083138 54.8828125 111.97265625 C54.10962162 110.50247444 53.33617871 109.03242515 52.5625 107.5625 C52.17658691 106.82878174 51.79067383 106.09506348 51.39306641 105.33911133 C48.60658398 100.07086295 45.64341689 94.9300038 42.6015625 89.8046875 C41.0111639 87.01955045 39.58707784 84.19766326 38.1875 81.3125 C34.26085799 73.27732793 29.59524928 65.66480314 25 58 C22.17192368 59.12259518 19.3560278 60.26807893 16.546875 61.4375 C15.28130335 61.95846296 14.01567726 62.47929367 12.75 63 C11.82380859 63.39058594 11.82380859 63.39058594 10.87890625 63.7890625 C7.37427203 65.21982039 3.95664778 66.29644022 0.25097656 67.08984375 C-0.54838318 67.26249756 -1.34774292 67.43515137 -2.17132568 67.61303711 C-3.07651947 67.80458374 -3.07651947 67.80458374 -4 68 C-3.99907821 68.66390967 -3.99815641 69.32781935 -3.99720669 70.0118475 C-3.9751517 86.14347009 -3.95858857 102.27508793 -3.94818783 118.40672207 C-3.94302482 126.20775836 -3.93598203 134.00878461 -3.92456055 141.80981445 C-3.91461385 148.60676313 -3.90814661 155.40370454 -3.90591151 162.20066029 C-3.90460437 165.80178131 -3.90151836 169.40288152 -3.89426994 173.0039959 C-3.88625636 177.01756602 -3.88600885 181.03109964 -3.88647461 185.04467773 C-3.88287933 186.24732773 -3.87928406 187.44997772 -3.87557983 188.68907166 C-3.8769545 189.77587219 -3.87832916 190.86267273 -3.87974548 191.98240662 C-3.87882369 192.93277518 -3.8779019 193.88314375 -3.87695217 194.86231136 C-4 197 -4 197 -5 198 C-6.41225046 198.0928726 -7.82908934 198.11746772 -9.24438477 198.11352539 C-10.14524307 198.11344986 -11.04610138 198.11337433 -11.97425842 198.11329651 C-12.95341721 198.10813522 -13.93257599 198.10297394 -14.94140625 198.09765625 C-15.93881332 198.0962413 -16.9362204 198.09482635 -17.96385193 198.09336853 C-21.16343124 198.08775114 -24.36294169 198.07519571 -27.5625 198.0625 C-29.72591045 198.05748724 -31.88932199 198.05292395 -34.05273438 198.04882812 C-39.36851325 198.03777607 -44.68425171 198.02102104 -50 198 C-51.26495775 195.47008449 -51.12302611 193.73268231 -51.12025452 190.90011597 C-51.12162918 189.82035492 -51.12300385 188.74059387 -51.12442017 187.62811279 C-51.12082489 186.43840881 -51.11722961 185.24870483 -51.11352539 184.02294922 C-51.11367142 182.77420013 -51.11381744 181.52545105 -51.1139679 180.23886108 C-51.11338952 176.80931337 -51.10836519 173.37982543 -51.10139394 169.9502883 C-51.09515378 166.36815662 -51.09455608 162.78602421 -51.09336853 159.20388794 C-51.09025717 152.4182475 -51.08204641 145.63262311 -51.07201904 138.84698975 C-51.06085184 131.12278784 -51.05534592 123.39858517 -51.05032361 115.6743772 C-51.03986364 99.78290883 -51.02226797 83.89145648 -51 68 C-49.37963333 68.24349686 -49.37963333 68.24349686 -47.72653198 68.49191284 C-43.95822829 69.00569529 -40.37163547 69.12939799 -36.5703125 69.1328125 C-35.55661087 69.13424759 -35.55661087 69.13424759 -34.52243042 69.13571167 C-33.10902817 69.13638679 -31.6956227 69.13457956 -30.28222656 69.13037109 C-28.10995672 69.12496255 -25.93788893 69.13036424 -23.765625 69.13671875 C-22.38802038 69.13605883 -21.01041588 69.13477947 -19.6328125 69.1328125 C-18.38387207 69.13168457 -17.13493164 69.13055664 -15.84814453 69.12939453 C-13.10054388 69.32530607 -13.10054388 69.32530607 -12 68 C-9.69 68 -7.38 68 -5 68 C-5 46.55 -5 25.1 -5 3 C-4.34 3.33 -3.68 3.66 -3 4 C-3 9.61 -3 15.22 -3 21 C-2.01 20.34 -1.02 19.68 0 19 C0.99 19 1.98 19 3 19 C2.54625 17.948125 2.0925 16.89625 1.625 15.8125 C0.37239999 12.89174547 -0.83510021 9.95705332 -2 7 C-1.34 7 -0.68 7 0 7 C0 4.69 0 2.38 0 0 Z " fill="#A0AC93" transform="translate(198,229)"/>
<path d="M0 0 C4.37398594 -0.34991888 4.37398594 -0.34991888 7 1 C8.89665094 3.86682723 10.26136454 6.77592136 11.640625 9.921875 C12.92745787 13.01276661 12.92745787 13.01276661 14.671875 15.765625 C16 18 16 18 16 20 C16.66 20 17.32 20 18 20 C18.350625 21.093125 18.70125 22.18625 19.0625 23.3125 C20.85119829 28.20742556 23.68889406 32.24029643 26.671875 36.484375 C28 39 28 39 27.703125 41.328125 C27.47109375 41.87984375 27.2390625 42.4315625 27 43 C26.01 42.67 25.02 42.34 24 42 C24.21269531 42.58265625 24.42539062 43.1653125 24.64453125 43.765625 C25 46 25 46 24.07421875 47.921875 C23.61660156 48.52515625 23.15898437 49.1284375 22.6875 49.75 C22.01267578 50.67039062 22.01267578 50.67039062 21.32421875 51.609375 C20.88722656 52.06828125 20.45023438 52.5271875 20 53 C19.34 53 18.68 53 18 53 C17.731875 53.639375 17.46375 54.27875 17.1875 54.9375 C16 57 16 57 13 58 C12.72671875 58.56589844 12.4534375 59.13179688 12.171875 59.71484375 C10.50119687 62.9726661 7.92930649 65.14132182 5.25 67.5625 C4.73695313 68.04396484 4.22390625 68.52542969 3.6953125 69.02148438 C-0.32999404 72.69786359 -4.32128092 76 -10 76 C-14 69.25 -14 69.25 -14 67 C-14.66 67 -15.32 67 -16 67 C-16.99 63.535 -16.99 63.535 -18 60 C-18.66 60 -19.32 60 -20 60 C-20.23074219 59.45472656 -20.46148437 58.90945313 -20.69921875 58.34765625 C-22.86198322 53.3467977 -25.2604174 48.62857558 -28.046875 43.9453125 C-29 42 -29 42 -29 39 C-28.236875 38.7525 -27.47375 38.505 -26.6875 38.25 C-23.73819971 36.87823242 -22.82568981 35.6081283 -21 33 C-20.34 33 -19.68 33 -19 33 C-19 32.34 -19 31.68 -19 31 C-18.34 31 -17.68 31 -17 31 C-16.72542969 30.40960938 -16.45085937 29.81921875 -16.16796875 29.2109375 C-15.04791832 27.09070826 -13.83439164 25.46794823 -12.3125 23.625 C-6.94147373 16.61759226 -3.15432657 8.21052651 0 0 Z " fill="#7B836D" transform="translate(233,207)"/>
<path d="M0 0 C3.05009472 2.03339648 3.6730604 2.84346689 5.1875 6 C5.53167969 6.70125 5.87585938 7.4025 6.23046875 8.125 C7 10 7 10 7 12 C7.66 12 8.32 12 9 12 C9 13.32 9 14.64 9 16 C8.34 16.33 7.68 16.66 7 17 C7.85923754 21.57543988 10.29847931 25.17769305 12.625 29.1484375 C14.06913743 32.14338161 14.61214124 34.71289698 15 38 C15.66 38 16.32 38 17 38 C17.66 40.31 18.32 42.62 19 45 C19.66 45 20.32 45 21 45 C25 51.75 25 51.75 25 54 C27.97 53.505 27.97 53.505 31 53 C31.27150879 53.52319824 31.54301758 54.04639648 31.82275391 54.58544922 C33.08694389 57.01699533 34.355241 59.44635728 35.625 61.875 C36.0799585 62.74600342 36.53491699 63.61700684 37.00366211 64.5144043 C39.38681752 69.04506492 41.8314293 73.47884503 44.5625 77.8125 C46.65970217 81.18574631 47.78685379 83.95022203 48 88 C48.66 88 49.32 88 50 88 C50.39832031 88.80824219 50.79664063 89.61648438 51.20703125 90.44921875 C51.73683594 91.51785156 52.26664063 92.58648437 52.8125 93.6875 C53.59560547 95.27111328 53.59560547 95.27111328 54.39453125 96.88671875 C55.42068343 98.8766051 56.50617215 100.83767925 57.6640625 102.75390625 C58.93687879 104.89387516 59.40453436 106.61813743 60 109 C60.66 109.33 61.32 109.66 62 110 C63.23411777 112.2761323 64.38661213 114.54107815 65.5 116.875 C67.18910421 120.37335391 68.83879636 123.75819453 71 127 C71 127.99 71 128.98 71 130 C71.66 130 72.32 130 73 130 C73.99 133.465 73.99 133.465 75 137 C75.66 137 76.32 137 77 137 C77.60416667 138.20833333 78.20833333 139.41666667 78.8125 140.625 C79.17859375 141.35589844 79.5446875 142.08679688 79.921875 142.83984375 C80.80966164 144.61863365 81.68745476 146.40240771 82.5625 148.1875 C84.23430142 151.45841582 86.1157122 154.56593026 88.04296875 157.69140625 C90.08911977 161.11150706 91.51835768 164.02645088 92 168 C92.66 168 93.32 168 94 168 C94.35191406 168.72703125 94.70382812 169.4540625 95.06640625 170.203125 C98.2585094 176.70401392 101.66429355 182.9983382 105.38671875 189.2109375 C107.05019003 192.08676921 108.5427889 195.0151386 110 198 C106.6875 198.25 106.6875 198.25 103 198 C100.59768111 195.36345502 98.99174516 192.31984555 97.3125 189.1875 C96.53132813 187.73730469 96.53132813 187.73730469 95.734375 186.2578125 C94.5124415 183.96255903 93.2935737 181.66586543 92.078125 179.3671875 C91.40654111 178.09880415 90.7346617 176.83057724 90.0625 175.5625 C89.72404053 174.9236084 89.38558105 174.2847168 89.03686523 173.62646484 C86.90722948 169.63092532 84.68471423 165.70791209 82.375 161.8125 C80.14431173 158.04288746 78.09894762 154.25318753 76.1875 150.3125 C73.30692523 144.42778694 70.0200018 138.83555387 66.67480469 133.20825195 C62.53254182 126.23710761 58.65414217 119.15083138 54.8828125 111.97265625 C54.10962162 110.50247444 53.33617871 109.03242515 52.5625 107.5625 C52.17658691 106.82878174 51.79067383 106.09506348 51.39306641 105.33911133 C48.60658398 100.07086295 45.64341689 94.9300038 42.6015625 89.8046875 C41.0111639 87.01955045 39.58707784 84.19766326 38.1875 81.3125 C34.26085799 73.27732793 29.59524928 65.66480314 25 58 C22.17192368 59.12259518 19.3560278 60.26807893 16.546875 61.4375 C15.28130335 61.95846296 14.01567726 62.47929367 12.75 63 C11.82380859 63.39058594 11.82380859 63.39058594 10.87890625 63.7890625 C5.85213625 65.8412284 1.47642348 66.783017 -4 68 C-4 110.57 -4 153.14 -4 197 C-4.33 197 -4.66 197 -5 197 C-5 132.98 -5 68.96 -5 3 C-4.01 3.495 -4.01 3.495 -3 4 C-3 9.61 -3 15.22 -3 21 C-2.01 20.34 -1.02 19.68 0 19 C0.99 19 1.98 19 3 19 C2.54625 17.948125 2.0925 16.89625 1.625 15.8125 C0.37239999 12.89174547 -0.83510021 9.95705332 -2 7 C-1.34 7 -0.68 7 0 7 C0 4.69 0 2.38 0 0 Z " fill="#A8B39D" transform="translate(198,229)"/>
<path d="M0 0 C0.66 0 1.32 0 2 0 C2 0.99 2 1.98 2 3 C2.66 3 3.32 3 4 3 C5.0078125 4.43359375 5.0078125 4.43359375 6.125 6.4375 C13.23815095 18.25788319 22.89014013 25.82462842 35 32 C34.01 35.63 33.02 39.26 32 43 C31.34 43 30.68 43 30 43 C29.76216797 44.50626953 29.76216797 44.50626953 29.51953125 46.04296875 C27.98047785 55.23889747 25.72220128 63.40804132 22 72 C14.45545769 70.17004718 8.46615274 67.25242211 2 63 C1.19046875 62.47792969 0.3809375 61.95585937 -0.453125 61.41796875 C-8.52312781 56.14040069 -8.52312781 56.14040069 -12 53 C-12 52.34 -12 51.68 -12 51 C-13.32 50.34 -14.64 49.68 -16 49 C-15.35332476 46.32935382 -14.62589793 43.70674592 -13.80078125 41.0859375 C-13.56399658 40.33352783 -13.32721191 39.58111816 -13.08325195 38.8059082 C-12.82890381 38.0037085 -12.57455566 37.20150879 -12.3125 36.375 C-12.04848389 35.54121826 -11.78446777 34.70743652 -11.51245117 33.84838867 C-9.64989291 27.99061814 -7.75017514 22.14584424 -5.8125 16.3125 C-5.5750708 15.59562012 -5.3376416 14.87874023 -5.09301758 14.14013672 C-3.5027613 9.38326386 -1.78359704 4.68786125 0 0 Z " fill="#858F76" transform="translate(108,219)"/>
<path d="M0 0 C5.94 1.485 5.94 1.485 12 3 C15.47901202 3.21567307 18.73051802 3.33899712 22.1875 3.25 C23.03119141 3.24484375 23.87488281 3.2396875 24.74414062 3.234375 C28.68858603 3.55643084 28.68858603 3.55643084 32 2 C34.32961443 1.64159778 36.66365343 1.31151288 39 1 C39.94875 0.79375 40.8975 0.5875 41.875 0.375 C42.57625 0.25125 43.2775 0.1275 44 0 C45 1 45 1 45.12025452 2.75270081 C45.11803391 3.51437057 45.11581329 4.27604034 45.11352539 5.06079102 C45.11344986 5.92160782 45.11337433 6.78242462 45.11329651 7.66932678 C45.10813522 8.60473801 45.10297394 9.54014923 45.09765625 10.50390625 C45.0962413 11.45692123 45.09482635 12.40993622 45.09336853 13.39183044 C45.08775152 16.44875165 45.07519616 19.50560077 45.0625 22.5625 C45.05748719 24.62955624 45.05292391 26.69661362 45.04882812 28.76367188 C45.03777656 33.84247588 45.02050055 38.9212257 45 44 C43.865625 44.144375 42.73125 44.28875 41.5625 44.4375 C38.19222799 44.61171478 38.19222799 44.61171478 37 46 C32.69176352 46.21973262 28.37773368 46.18578803 24.06445312 46.18530273 C21.90474173 46.18747015 19.7455571 46.20556555 17.5859375 46.22460938 C16.20052257 46.22754717 14.81510522 46.22952938 13.4296875 46.23046875 C11.54612549 46.23663208 11.54612549 46.23663208 9.62451172 46.24291992 C6 46 6 46 -1 44 C-0.67 29.48 -0.34 14.96 0 0 Z " fill="#858F76" transform="translate(148,253)"/>
<path d="M0 0 C2.64 0 5.28 0 8 0 C8.48210937 1.04800781 8.96421875 2.09601563 9.4609375 3.17578125 C10.098827 4.55474826 10.73685509 5.93365117 11.375 7.3125 C11.69210937 8.00279297 12.00921875 8.69308594 12.3359375 9.40429688 C13.73807723 12.42766067 15.1477087 15.22156305 17 18 C17.27674561 17.49025635 17.55349121 16.9805127 17.83862305 16.45532227 C19.10424506 14.14770219 20.39535695 11.8553666 21.6875 9.5625 C22.12255859 8.76005859 22.55761719 7.95761719 23.00585938 7.13085938 C26.34272021 1.2728148 26.34272021 1.2728148 29.64453125 -0.09765625 C32 0 32 0 35 1 C35.16938829 12.36783648 34.63922005 23.65384417 34 35 C27.84765625 35.09765625 27.84765625 35.09765625 26 35 C25 34 25 34 24.90234375 31.05859375 C24.91394531 29.86363281 24.92554688 28.66867187 24.9375 27.4375 C24.94652344 26.23996094 24.95554687 25.04242187 24.96484375 23.80859375 C24.97644531 22.88175781 24.98804688 21.95492187 25 21 C24.62488281 21.721875 24.24976563 22.44375 23.86328125 23.1875 C23.35152344 24.115625 22.83976562 25.04375 22.3125 26 C21.81363281 26.928125 21.31476563 27.85625 20.80078125 28.8125 C19 31 19 31 16.46484375 31.5546875 C14 31 14 31 12.453125 29.3203125 C12.05609375 28.59585938 11.6590625 27.87140625 11.25 27.125 C10.84265625 26.40570312 10.4353125 25.68640625 10.015625 24.9453125 C9.33215184 23.63619852 8.66044152 22.32088303 8 21 C7.86722656 21.85464844 7.73445312 22.70929687 7.59765625 23.58984375 C7.42105469 24.69457031 7.24445313 25.79929687 7.0625 26.9375 C6.88847656 28.03964844 6.71445313 29.14179687 6.53515625 30.27734375 C6 33 6 33 5 34 C2.66702567 34.04092937 0.33294775 34.04241723 -2 34 C-2.22379488 22.44969732 -1.91025574 11.4103669 0 0 Z " fill="#8A907F" transform="translate(247,492)"/>
<path d="M0 0 C1.54874532 3.09749064 1.25382087 5.56989291 1 9 C-0.53125 12.45703125 -0.53125 12.45703125 -2.5 15.8125 C-5.04586691 19.67304513 -5.04586691 19.67304513 -6 24 C-5.26394531 23.62746094 -4.52789062 23.25492187 -3.76953125 22.87109375 C-2.79371094 22.39800781 -1.81789063 21.92492187 -0.8125 21.4375 C0.15042969 20.96183594 1.11335938 20.48617188 2.10546875 19.99609375 C5.27718777 18.9046115 6.83698225 19.03432548 10 20 C10.66 21.98 11.32 23.96 12 26 C4.88618965 29.65420653 -2.26282163 33.23016828 -9.5625 36.5 C-10.67753906 37.0053125 -11.79257812 37.510625 -12.94140625 38.03125 C-16.18063796 39.05721355 -17.79936082 39.00131728 -21 38 C-22.16531912 34.08306348 -22.14590776 31.72218314 -20.34765625 28.1328125 C-19.60249657 26.78756847 -18.84024745 25.45167003 -18.0625 24.125 C-17.67642578 23.43664062 -17.29035156 22.74828125 -16.89257812 22.0390625 C-15.9430625 20.35103473 -14.97348942 18.67431659 -14 17 C-14.33 16.67 -14.66 16.34 -15 16 C-15.74765625 16.37253906 -16.4953125 16.74507813 -17.265625 17.12890625 C-18.25046875 17.60199219 -19.2353125 18.07507813 -20.25 18.5625 C-21.22453125 19.03816406 -22.1990625 19.51382812 -23.203125 20.00390625 C-26 21 -26 21 -28.234375 21.02734375 C-30 20 -30 20 -31.25 16.9375 C-31.4975 15.968125 -31.745 14.99875 -32 14 C-29.00074658 12.41524955 -26.00045992 10.83246479 -23 9.25 C-22.16082031 8.8065625 -21.32164062 8.363125 -20.45703125 7.90625 C-17.9746696 6.59771828 -15.48831761 5.29716557 -13 4 C-12.23945313 3.60006836 -11.47890625 3.20013672 -10.6953125 2.78808594 C-4.2603125 -0.53253906 -4.2603125 -0.53253906 0 0 Z " fill="#878D7B" transform="translate(398,299)"/>
<path d="M0 0 C3.93576055 0.55168148 6.30531533 1.63694001 9.46875 4.01953125 C10.28730469 4.62990234 11.10585938 5.24027344 11.94921875 5.86914062 C13.21185547 6.83110352 13.21185547 6.83110352 14.5 7.8125 C15.34175781 8.44220703 16.18351562 9.07191406 17.05078125 9.72070312 C21.086753 12.74927091 25.08530467 15.81529908 29 19 C27.125 23.875 27.125 23.875 26 25 C24.29227642 25.08713831 22.58101351 25.10700007 20.87109375 25.09765625 C19.31938477 25.09282227 19.31938477 25.09282227 17.73632812 25.08789062 C16.64771484 25.07951172 15.55910156 25.07113281 14.4375 25.0625 C12.7987793 25.05573242 12.7987793 25.05573242 11.12695312 25.04882812 C8.41791505 25.03699826 5.70898401 25.02051543 3 25 C3 25.66 3 26.32 3 27 C3.99 27.309375 3.99 27.309375 5 27.625 C7.67641677 28.85169102 9.89877705 30.14475892 12.3125 31.8125 C13.00988281 32.29332031 13.70726562 32.77414062 14.42578125 33.26953125 C16 35 16 35 16.30859375 37.58203125 C16 40 16 40 14.75 41.875 C13 43 13 43 11.11572266 42.72460938 C8.83687115 41.94413035 7.3165082 40.98006634 5.3984375 39.53125 C4.74359375 39.04269531 4.08875 38.55414063 3.4140625 38.05078125 C2.74117188 37.53902344 2.06828125 37.02726562 1.375 36.5 C0.02955739 35.48836985 -1.316757 34.4778978 -2.6640625 33.46875 C-3.25654785 33.01951172 -3.8490332 32.57027344 -4.45947266 32.10742188 C-6.01977733 30.9238836 -6.01977733 30.9238836 -8 30 C-8 29.34 -8 28.68 -8 28 C-8.61875 27.690625 -9.2375 27.38125 -9.875 27.0625 C-11.25 26.375 -12.625 25.6875 -14 25 C-14.36564842 20.49033621 -14.36564842 20.49033621 -12.7800293 18.36401367 C-10.51908526 16.63148119 -9.16104063 16.57837709 -6.33203125 16.48828125 C-5.43935547 16.45283203 -4.54667969 16.41738281 -3.62695312 16.38085938 C-2.69818359 16.35830078 -1.76941406 16.33574219 -0.8125 16.3125 C0.59805664 16.26125977 0.59805664 16.26125977 2.03710938 16.20898438 C4.3576536 16.12652849 6.67880817 16.06158697 9 16 C5.04 13.03 1.08 10.06 -3 7 C-1 2 -1 2 0 0 Z " fill="#8F9486" transform="translate(372,430)"/>
<path d="M0 0 C0.77601563 0.09023438 1.55203125 0.18046875 2.3515625 0.2734375 C4.375 0.625 4.375 0.625 6.375 1.625 C6.375 2.285 6.375 2.945 6.375 3.625 C6.9525 3.810625 7.53 3.99625 8.125 4.1875 C11.47207768 6.32591074 13.08010998 8.96268479 14.375 12.625 C15.35576639 18.21038149 15.28340667 23.06697989 12.0625 27.875 C8.05607293 32.49193025 2.8994518 36.05174734 -2.625 38.625 C-5.46484375 38.8125 -5.46484375 38.8125 -7.625 38.625 C-7.91632813 38.09132813 -8.20765625 37.55765625 -8.5078125 37.0078125 C-10.8274446 32.79162585 -13.20317304 28.6215806 -15.6875 24.5 C-16.18636719 23.66984375 -16.68523437 22.8396875 -17.19921875 21.984375 C-18.08971056 20.51079404 -18.98703185 19.04129326 -19.89453125 17.578125 C-21.93327896 14.20662702 -22.625 12.68453544 -22.625 8.625 C-20.37835738 7.30644905 -18.12802694 5.99506028 -15.875 4.6875 C-15.24078125 4.31431641 -14.6065625 3.94113281 -13.953125 3.55664062 C-9.0013796 0.69391281 -5.6717168 -0.70185124 0 0 Z M-11.625 11.625 C-10.05486223 17.59152354 -6.87470218 22.45409025 -3.625 27.625 C0.30484458 26.76009831 2.58700281 25.64533028 5.375 22.625 C6.06559386 17.79084296 6.12752273 15.80395227 3.5 11.6875 C0.97045149 9.23234997 0.06925715 8.68671175 -3.4375 8.375 C-6.98041555 8.65287573 -8.75455745 9.59880526 -11.625 11.625 Z " fill="#8B9081" transform="translate(341.625,472.375)"/>
<path d="M0 0 C1.6015625 1.16796875 1.6015625 1.16796875 2.6015625 4.16796875 C3.2615625 4.16796875 3.9215625 4.16796875 4.6015625 4.16796875 C6.84241421 9.54954176 6.83754663 14.3297417 6.7265625 20.04296875 C6.6853125 23.05421875 6.6440625 26.06546875 6.6015625 29.16796875 C-4.6184375 29.16796875 -15.8384375 29.16796875 -27.3984375 29.16796875 C-27.4603125 25.99171875 -27.5221875 22.81546875 -27.5859375 19.54296875 C-27.61324951 18.55345215 -27.64056152 17.56393555 -27.66870117 16.54443359 C-27.71784293 11.31638505 -27.35233766 7.67655321 -24.3984375 3.16796875 C-17.11360247 -3.91997885 -8.7849899 -4.42641383 0 0 Z M-17.3984375 8.16796875 C-20.4559639 11.95347762 -19.3984375 14.89812531 -19.3984375 20.16796875 C-13.1284375 20.16796875 -6.8584375 20.16796875 -0.3984375 20.16796875 C-0.15154698 13.27135014 -0.15154698 13.27135014 -3.3984375 8.16796875 C-7.93640534 4.99139126 -12.67720464 5.61595099 -17.3984375 8.16796875 Z " fill="#8F9486" transform="translate(412.3984375,361.83203125)"/>
<path d="M0 0 C2.97 0.495 2.97 0.495 6 1 C7.12377697 4.30435084 6.89554742 6.0506862 5.5625 9.25 C5.13130859 10.30960937 5.13130859 10.30960937 4.69140625 11.390625 C4.46324219 11.92171875 4.23507813 12.4528125 4 13 C4.75023437 12.55527344 5.50046875 12.11054688 6.2734375 11.65234375 C13.31386767 7.75971296 18.08434219 6.0736231 26 8 C26 9.32 26 10.64 26 12 C24.06374902 12.98163422 22.12595461 13.96022454 20.1875 14.9375 C19.10855469 15.48277344 18.02960938 16.02804687 16.91796875 16.58984375 C14 18 14 18 11 19 C11.15670166 19.59014893 11.31340332 20.18029785 11.47485352 20.78833008 C12.17934385 23.4608703 12.87104699 26.13655851 13.5625 28.8125 C13.80935547 29.74126953 14.05621094 30.67003906 14.31054688 31.62695312 C14.65375977 32.9659668 14.65375977 32.9659668 15.00390625 34.33203125 C15.32597046 35.56530151 15.32597046 35.56530151 15.65454102 36.82348633 C16 39 16 39 15 42 C11.59687262 40.94124926 8.98646769 39.99097846 6 38 C5.05078125 35.50390625 5.05078125 35.50390625 4.3125 32.5625 C4.06113281 31.59441406 3.80976563 30.62632812 3.55078125 29.62890625 C3 27 3 27 3 24 C0.60510457 24.74324341 -0.70777616 25.47057354 -1.93359375 27.69140625 C-2.67219923 29.44073501 -3.34049685 31.21934149 -4 33 C-9.75 33.125 -9.75 33.125 -12 32 C-10.93719124 26.04827094 -9.22338605 20.52822198 -7.125 14.875 C-6.88056152 14.20662109 -6.63612305 13.53824219 -6.38427734 12.84960938 C-4.65222494 8.28032232 -2.51433205 4.19055342 0 0 Z " fill="#878E7C" transform="translate(218,481)"/>
<path d="M0 0 C21.66952559 2.96297595 21.66952559 2.96297595 28.375 9.6875 C31.14020653 15.32426717 30.83151389 20.40763316 28.9375 26.3125 C26.38360488 29.85499969 23.95203207 32.12155076 20 34 C13.48267718 34.99190397 7.6042669 33.32500405 1.5 31.1875 C0.28570312 30.79594727 0.28570312 30.79594727 -0.953125 30.39648438 C-5.36709485 28.89677146 -5.36709485 28.89677146 -7 28 C-8.2077558 24.37673261 -7.54311128 23.35853631 -6 20 C-1.16802893 20.38348977 3.06429368 20.89835243 7.625 22.5625 C11.54047914 23.95451798 14.80899536 24.51318424 19 24 C21.29013653 20.5647952 21.17842973 19.014669 21 15 C20.33355469 14.81824219 19.66710937 14.63648438 18.98046875 14.44921875 C12.3203125 12.6328125 5.66015625 10.81640625 -1 9 C-1.80967438 6.08517222 -2.21845993 4.53886783 -1.0625 1.6875 C-0.711875 1.130625 -0.36125 0.57375 0 0 Z " fill="#878F7E" transform="translate(384,397)"/>
<path d="M0 0 C2.11058122 2.11058122 3.67944567 3.96851625 5.375 6.375 C6.32874471 7.66326588 7.28317688 8.95102308 8.23828125 10.23828125 C8.70314941 10.87717285 9.16801758 11.51606445 9.64697266 12.17431641 C12.10941105 15.49696424 14.7941191 18.64076242 17.44140625 21.81640625 C19.0892279 24.12500852 20.05812699 26.33370277 21 29 C19.54536519 29.38909985 18.08608793 29.76088029 16.625 30.125 C15.81289063 30.33382812 15.00078125 30.54265625 14.1640625 30.7578125 C13.44992187 30.83773437 12.73578125 30.91765625 12 31 C11.34 30.34 10.68 29.68 10 29 C10 28.01 10 27.02 10 26 C4.76119922 26.55145271 0.02649303 27.42922093 -5 29 C-4.979375 29.94875 -4.95875 30.8975 -4.9375 31.875 C-5 35 -5 35 -6 37 C-8.32156597 37.40729228 -10.6568787 37.74438677 -13 38 C-14.21906903 34.3427929 -13.7801956 32.10037341 -13.2578125 28.28515625 C-13.16998505 27.63300644 -13.08215759 26.98085663 -12.9916687 26.3089447 C-12.80479054 24.93086502 -12.61461639 23.55322885 -12.42138672 22.17602539 C-12.12670195 20.07463655 -11.84174749 17.97211112 -11.55859375 15.86914062 C-9.82243487 3.15254161 -9.82243487 3.15254161 -9 1 C-5.58246404 -0.13917865 -3.57775449 -0.52379036 0 0 Z M-3 10 C-3 13.3 -3 16.6 -3 20 C-1.02 19.67 0.96 19.34 3 19 C1.35 16.03 -0.3 13.06 -2 10 C-2.33 10 -2.66 10 -3 10 Z " fill="#898F7E" transform="translate(305,488)"/>
<path d="M0 0 C1.45833333 0.72916667 2.91666667 1.45833333 4.375 2.1875 C3.85025647 9.31534658 2.64958459 16.06680615 0.9375 23 C0.72029297 23.91458984 0.50308594 24.82917969 0.27929688 25.77148438 C-0.75641999 30.04809305 -1.80981015 34.16031136 -3.625 38.1875 C-8.375 37.4375 -8.375 37.4375 -10.625 35.1875 C-10.6015625 33.0234375 -10.6015625 33.0234375 -10.25 30.5625 C-10.08371094 29.33660156 -10.08371094 29.33660156 -9.9140625 28.0859375 C-9.77097656 27.14621094 -9.77097656 27.14621094 -9.625 26.1875 C-10.24503906 25.89230469 -10.86507812 25.59710938 -11.50390625 25.29296875 C-13.625 24.1875 -13.625 24.1875 -15.5625 22.5 C-17.57285082 20.92214336 -17.57285082 20.92214336 -20.125 21.4375 C-22.56659145 22.12715605 -22.56659145 22.12715605 -24.625 23 C-26.625 23.1875 -26.625 23.1875 -29.375 21.4375 C-30.1175 20.695 -30.86 19.9525 -31.625 19.1875 C-31.625 18.1975 -31.625 17.2075 -31.625 16.1875 C-30.47 15.56875 -29.315 14.95 -28.125 14.3125 C-22.6899136 11.30456542 -17.45420986 7.99349666 -12.2109375 4.66650391 C-11.54707031 4.24675293 -10.88320312 3.82700195 -10.19921875 3.39453125 C-9.60713623 3.0178833 -9.01505371 2.64123535 -8.4050293 2.25317383 C-3.05962909 -0.94702805 -3.05962909 -0.94702805 0 0 Z M-10.3125 12.625 C-11.83939736 14.10263438 -11.83939736 14.10263438 -11.625 16.1875 C-10.965 16.1875 -10.305 16.1875 -9.625 16.1875 C-9.625 16.8475 -9.625 17.5075 -9.625 18.1875 C-8.635 18.1875 -7.645 18.1875 -6.625 18.1875 C-5.965 15.5475 -5.305 12.9075 -4.625 10.1875 C-7.03307224 10.1875 -8.56504823 11.13642997 -10.3125 12.625 Z " fill="#8A9080" transform="translate(200.625,467.8125)"/>
<path d="M0 0 C2.60445336 1.30222668 2.83931591 2.43638075 4.0625 5.0625 C6.35304922 9.79268744 8.84522158 14.36884482 11.4375 18.9375 C12.22531063 20.32809655 13.01307169 21.71872119 13.80078125 23.109375 C14.17799316 23.77517578 14.55520508 24.44097656 14.94384766 25.12695312 C16.83761386 28.48547701 18.68309993 31.86948835 20.515625 35.26171875 C21.63872683 37.33354608 22.77678902 39.39727293 23.921875 41.45703125 C24.57301367 42.63796736 25.22405677 43.81895616 25.875 45 C26.47054688 46.0725 27.06609375 47.145 27.6796875 48.25 C29 51 29 51 29 54 C29.66 54 30.32 54 31 54 C31.27972656 54.58265625 31.55945313 55.1653125 31.84765625 55.765625 C34.24457981 60.66737222 36.78817588 65.42539061 39.5625 70.125 C47 82.72652838 47 82.72652838 47 86 C44.525 86.495 44.525 86.495 42 87 C33 73.89320388 33 73.89320388 33 70 C32.34 70 31.68 70 31 70 C30.566875 68.96875 30.13375 67.9375 29.6875 66.875 C28.64735867 64.42819135 27.54138841 62.11674804 26.3125 59.75 C25 57 25 57 25 54 C24.34 54 23.68 54 23 54 C21.66180502 51.3773768 20.3292849 48.75213401 19 46.125 C18.6184375 45.37863281 18.236875 44.63226563 17.84375 43.86328125 C17.4828125 43.14785156 17.121875 42.43242187 16.75 41.6953125 C16.41484375 41.03547363 16.0796875 40.37563477 15.734375 39.69580078 C15 38 15 38 15 36 C14.34 36 13.68 36 13 36 C12.32591692 34.73308493 11.66099503 33.46129251 11 32.1875 C10.443125 31.12595703 10.443125 31.12595703 9.875 30.04296875 C9 28 9 28 9 25 C8.34 25 7.68 25 7 25 C5.29266954 21.92725154 3.61274352 18.84034212 1.9375 15.75 C1.45216797 14.87730469 0.96683594 14.00460937 0.46679688 13.10546875 C-0.21479492 11.83896484 -0.21479492 11.83896484 -0.91015625 10.546875 C-1.33433838 9.77182617 -1.75852051 8.99677734 -2.19555664 8.19824219 C-3.14058078 5.61584542 -3.03422894 4.51957551 -2 2 C-1.34 1.34 -0.68 0.68 0 0 Z " fill="#AAB2A0" transform="translate(262,248)"/>
<path d="M0 0 C0.99 0.99 1.98 1.98 3 3 C2.34 3.66 1.68 4.32 1 5 C4.13147668 11.52270719 7.57741348 17.78535338 11.25390625 24.015625 C16.01052969 32.14551382 20.33844292 40.51562355 24.73364258 48.84423828 C27.42360118 53.93415781 30.1730929 58.98451966 33 64 C33.33 61.03 33.66 58.06 34 55 C34.33 55 34.66 55 35 55 C35 58.96 35 62.92 35 67 C34.34 67 33.68 67 33 67 C32.34 68.32 31.68 69.64 31 71 C28 70 28 70 26.71875 67.92578125 C26.11546875 66.63220703 26.11546875 66.63220703 25.5 65.3125 C25.06558594 64.39984375 24.63117188 63.4871875 24.18359375 62.546875 C23.59771484 61.28617188 23.59771484 61.28617188 23 60 C20.56877607 55.03184675 17.91442372 50.21255028 15.20703125 45.390625 C14 43 14 43 14 41 C13.34 41 12.68 41 12 41 C9 34.375 9 34.375 9 31 C8.34 31 7.68 31 7 31 C4.33333333 25.66666667 1.66666667 20.33333333 -1 15 C-1.55131592 13.99018066 -1.55131592 13.99018066 -2.11376953 12.95996094 C-3.33125234 10.26741217 -3.13252054 7.91545186 -3 5 C-2.34 5 -1.68 5 -1 5 C-0.67 3.35 -0.34 1.7 0 0 Z " fill="#A9B19E" transform="translate(200,129)"/>
<path d="M0 0 C0.495 3.96 0.495 3.96 1 8 C-6.33341812 9.99817894 -13.67336957 11.96671102 -21.0625 13.75 C-22.56490234 14.11351562 -22.56490234 14.11351562 -24.09765625 14.484375 C-27.12367954 15.02197268 -29.93310166 15.09114111 -33 15 C-33.625 11.625 -33.625 11.625 -34 8 C-31.70526353 5.70526353 -30.92487096 5.63590847 -27.8125 5.125 C-21.96390677 4.07089308 -16.31493062 2.45437274 -10.61328125 0.8046875 C-6.95506497 -0.01000715 -3.73435575 -0.14381344 0 0 Z " fill="#868B7A" transform="translate(415,339)"/>
<path d="M0 0 C21.66952559 2.96297595 21.66952559 2.96297595 28.375 9.6875 C30.59197274 14.20671367 30.4394657 18.05845232 30 23 C29.67 23 29.34 23 29 23 C28.896875 22.05125 28.79375 21.1025 28.6875 20.125 C28.31460705 16.70892499 28.31460705 16.70892499 25 15 C23.02 15.99 23.02 15.99 21 17 C21 16.34 21 15.68 21 15 C20.33355469 14.81824219 19.66710937 14.63648438 18.98046875 14.44921875 C12.3203125 12.6328125 5.66015625 10.81640625 -1 9 C-1.80967438 6.08517222 -2.21845993 4.53886783 -1.0625 1.6875 C-0.711875 1.130625 -0.36125 0.57375 0 0 Z " fill="#898F7F" transform="translate(384,397)"/>
<path d="M0 0 C2.11058122 2.11058122 3.67944567 3.96851625 5.375 6.375 C6.32874471 7.66326588 7.28317688 8.95102308 8.23828125 10.23828125 C8.70314941 10.87717285 9.16801758 11.51606445 9.64697266 12.17431641 C12.10941105 15.49696424 14.7941191 18.64076242 17.44140625 21.81640625 C19.0892279 24.12500852 20.05812699 26.33370277 21 29 C19.54536519 29.38909985 18.08608793 29.76088029 16.625 30.125 C15.81289063 30.33382812 15.00078125 30.54265625 14.1640625 30.7578125 C13.44992187 30.83773437 12.73578125 30.91765625 12 31 C11.34 30.34 10.68 29.68 10 29 C10 28.01 10 27.02 10 26 C8.68 25.67 7.36 25.34 6 25 C6 23 6 23 7.5 21.375 C7.995 20.92125 8.49 20.4675 9 20 C7.35 19.34 5.7 18.68 4 18 C4 18.66 4 19.32 4 20 C2.68 19.67 1.36 19.34 0 19 C0.66 18.67 1.32 18.34 2 18 C1.01 16.68 0.02 15.36 -1 14 C0 12 0 12 3 11 C3 10.01 3 9.02 3 8 C2.34 8 1.68 8 1 8 C0.67 7.01 0.34 6.02 0 5 C-0.7425 4.896875 -1.485 4.79375 -2.25 4.6875 C-5.17014018 3.95746496 -6.73187554 2.93210602 -9 1 C-5.58246404 -0.13917865 -3.57775449 -0.52379036 0 0 Z " fill="#93988A" transform="translate(305,488)"/>
<path d="M0 0 C1.49249268 0.01571045 1.49249268 0.01571045 3.01513672 0.03173828 C4.6296875 0.04140625 4.6296875 0.04140625 6.27685547 0.05126953 C7.40478516 0.06802734 8.53271484 0.08478516 9.69482422 0.10205078 C11.39832031 0.11558594 11.39832031 0.11558594 13.13623047 0.12939453 C15.94763721 0.1530198 18.7586272 0.18596065 21.56982422 0.22705078 C21.56982422 0.55705078 21.56982422 0.88705078 21.56982422 1.22705078 C18.92982422 1.55705078 16.28982422 1.88705078 13.56982422 2.22705078 C13.56982422 2.88705078 13.56982422 3.54705078 13.56982422 4.22705078 C11.91982422 4.88705078 10.26982422 5.54705078 8.56982422 6.22705078 C8.77607422 6.82517578 8.98232422 7.42330078 9.19482422 8.03955078 C9.56982422 10.22705078 9.56982422 10.22705078 7.56982422 13.22705078 C4.59982422 12.73205078 4.59982422 12.73205078 1.56982422 12.22705078 C1.56982422 11.56705078 1.56982422 10.90705078 1.56982422 10.22705078 C0.95107422 9.91767578 0.33232422 9.60830078 -0.30517578 9.28955078 C-1.68017578 8.60205078 -3.05517578 7.91455078 -4.43017578 7.22705078 C-4.55517578 4.85205078 -4.55517578 4.85205078 -4.43017578 2.22705078 C-2.43017578 0.22705078 -2.43017578 0.22705078 0 0 Z " fill="#858C7B" transform="translate(362.43017578125,447.77294921875)"/>
<path d="M0 0 C2.94633882 2.542971 4.3314418 5.39014667 6 8.875 C7.8429676 12.70491704 9.75983894 16.38640686 12 20 C12.495 15.545 12.495 15.545 13 11 C13.33 11 13.66 11 14 11 C14 14.96 14 18.92 14 23 C13.34 23 12.68 23 12 23 C11.34 24.32 10.68 25.64 10 27 C7 26 7 26 5.71875 23.92578125 C5.3165625 23.06339844 4.914375 22.20101562 4.5 21.3125 C4.07074219 20.41015625 3.64148438 19.5078125 3.19921875 18.578125 C2.80347656 17.72734375 2.40773437 16.8765625 2 16 C0.44311378 12.8285651 -1.0403267 9.93950994 -3 7 C-2.62068453 3.96547627 -1.74959319 2.62438979 0 0 Z " fill="#AEB6A2" transform="translate(221,173)"/>
<path d="M0 0 C0.66 1.98 1.32 3.96 2 6 C-0.22791998 7.12752649 -2.45725887 8.25208139 -4.6875 9.375 C-5.31333984 9.69210937 -5.93917969 10.00921875 -6.58398438 10.3359375 C-10.00364701 12.05472081 -13.42007074 13.64469217 -17 15 C-16.6875 13.0625 -16.6875 13.0625 -16 11 C-13 10 -13 10 -10 10 C-10.79299706 7.82961523 -10.79299706 7.82961523 -12.84765625 7.3671875 C-13.57855469 7.20476562 -14.30945313 7.04234375 -15.0625 6.875 C-15.79597656 6.70742188 -16.52945312 6.53984375 -17.28515625 6.3671875 C-17.85105469 6.24601562 -18.41695313 6.12484375 -19 6 C-19 4.02 -19 2.04 -19 0 C-18.01 0 -17.02 0 -16 0 C-16 1.32 -16 2.64 -16 4 C-15.26394531 3.62746094 -14.52789062 3.25492187 -13.76953125 2.87109375 C-12.79371094 2.39800781 -11.81789063 1.92492187 -10.8125 1.4375 C-9.36810547 0.72400391 -9.36810547 0.72400391 -7.89453125 -0.00390625 C-4.72281223 -1.0953885 -3.16301775 -0.96567452 0 0 Z " fill="#909486" transform="translate(408,319)"/>
<path d="M0 0 C4.00453651 1.37298395 6.91685133 3.08350802 10 6 C11.1875 8.6875 11.1875 8.6875 12 11 C12.66 11.33 13.32 11.66 14 12 C13.67 13.32 13.34 14.64 13 16 C12.34 16 11.68 16 11 16 C11 17.65 11 19.3 11 21 C9.68 21 8.36 21 7 21 C3.37336418 17.10472449 3.57232941 12.57501969 3.40625 7.5234375 C2.93701314 4.60875468 2.16043681 3.89612805 0 2 C0 1.34 0 0.68 0 0 Z " fill="#868D7C" transform="translate(327,490)"/>
<path d="M0 0 C0.94875 0.04125 1.8975 0.0825 2.875 0.125 C1.885 0.455 0.895 0.785 -0.125 1.125 C-0.11339844 2.26839844 -0.10179687 3.41179687 -0.08984375 4.58984375 C-0.08046712 6.08072754 -0.07136679 7.57161309 -0.0625 9.0625 C-0.05412109 9.81724609 -0.04574219 10.57199219 -0.03710938 11.34960938 C-0.02847559 13.27494313 -0.07275667 15.20035581 -0.125 17.125 C-1.125 18.125 -1.125 18.125 -4.6875 18.1875 C-5.821875 18.166875 -6.95625 18.14625 -8.125 18.125 C-8.50376606 11.93848769 -8.04796816 7.63367077 -5.125 2.125 C-3.125 0.125 -3.125 0.125 0 0 Z " fill="#7D8372" transform="translate(253.125,507.875)"/>
<path d="M0 0 C0.66 1.32 1.32 2.64 2 4 C2.66 4 3.32 4 4 4 C4 9.28 4 14.56 4 20 C1.69 20 -0.62 20 -3 20 C-4 19 -4 19 -4.125 15.5 C-4 12 -4 12 -3 11 C-2.7180604 8.71315662 -2.55222995 6.42636727 -2.37890625 4.12890625 C-2 2 -2 2 0 0 Z " fill="#7D8571" transform="translate(276,507)"/>
<path d="M0 0 C0 1.32 0 2.64 0 4 C-7 7.5 -7 7.5 -14 11 C-14.45375 10.21625 -14.9075 9.4325 -15.375 8.625 C-16.88428742 5.96301969 -16.88428742 5.96301969 -19 4 C-12.4082826 -0.60146456 -7.88322268 -1.66222441 0 0 Z " fill="#94998B" transform="translate(244,489)"/>
<path d="M0 0 C0.33 2.64 0.66 5.28 1 8 C-0.74635165 8.53293835 -2.49727652 9.05090663 -4.25 9.5625 C-5.22453125 9.85253906 -6.1990625 10.14257812 -7.203125 10.44140625 C-9.96243932 10.99249836 -11.3912824 10.93789609 -14 10 C-13.360625 9.38125 -12.72125 8.7625 -12.0625 8.125 C-9.96116416 6.17402388 -9.96116416 6.17402388 -9 4 C-10.65 3.67 -12.3 3.34 -14 3 C-9.12941325 0.48073099 -5.50946709 -0.10395221 0 0 Z " fill="#8C9081" transform="translate(415,339)"/>
<path d="M0 0 C2.97 0.495 2.97 0.495 6 1 C7.12377697 4.30435084 6.89554742 6.0506862 5.5625 9.25 C5.27503906 9.95640625 4.98757812 10.6628125 4.69140625 11.390625 C4.46324219 11.92171875 4.23507813 12.4528125 4 13 C3.01 13 2.02 13 1 13 C0.67 12.01 0.34 11.02 0 10 C-1.65 10.33 -3.3 10.66 -5 11 C-3.77472971 6.94718288 -2.30119506 3.55639236 0 0 Z " fill="#8A8F80" transform="translate(218,481)"/>
<path d="M0 0 C3.64626587 0.20835805 5.00957126 1.00829509 7.8125 3.4375 C11.0149097 7.5305799 10.44004726 12.05191304 10 17 C9.67 17 9.34 17 9 17 C8.896875 16.05125 8.79375 15.1025 8.6875 14.125 C8.31460705 10.70892499 8.31460705 10.70892499 5 9 C3.02 9.99 3.02 9.99 1 11 C1 10.34 1 9.68 1 9 C-3.455 8.01 -3.455 8.01 -8 7 C-8 6.67 -8 6.34 -8 6 C-6.02 6 -4.04 6 -2 6 C-2.33 4.68 -2.66 3.36 -3 2 C-1.68 2.66 -0.36 3.32 1 4 C1 4.66 1 5.32 1 6 C1.66 6 2.32 6 3 6 C2.65555119 3.52733235 2.65555119 3.52733235 2 1 C1.34 0.67 0.68 0.34 0 0 Z " fill="#969B8E" transform="translate(404,403)"/>
<path d="M0 0 C0.66 0.33 1.32 0.66 2 1 C2 1.66 2 2.32 2 3 C2.86625 3.37125 2.86625 3.37125 3.75 3.75 C6.44802385 5.24890214 8.08748093 6.55988946 10 9 C10.75 12.75 10.75 12.75 11 16 C9.02 16.99 9.02 16.99 7 18 C4 12.25 4 12.25 4 10 C3.34 10 2.68 10 2 10 C1.46987262 8.71211992 0.9511671 7.41953322 0.4375 6.125 C0.14746094 5.40570313 -0.14257812 4.68640625 -0.44140625 3.9453125 C-1 2 -1 2 0 0 Z " fill="#A1AD95" transform="translate(210,160)"/>
<path d="M0 0 C0.66 0.33 1.32 0.66 2 1 C0.625 2.5 0.625 2.5 -1 4 C-1.66 4 -2.32 4 -3 4 C-2.01 4.99 -1.02 5.98 0 7 C0.33 6.34 0.66 5.68 1 5 C1.66 6.65 2.32 8.3 3 10 C0.3125 11.625 0.3125 11.625 -3 13 C-6.21381808 12.19654548 -7.65941419 11.34058581 -10 9 C-10 8.01 -10 7.02 -10 6 C-9.36191406 5.65066406 -8.72382813 5.30132812 -8.06640625 4.94140625 C-7.24011719 4.48636719 -6.41382813 4.03132813 -5.5625 3.5625 C-4.73878906 3.11003906 -3.91507813 2.65757812 -3.06640625 2.19140625 C-1.07691202 1.16337603 -1.07691202 1.16337603 0 0 Z " fill="#989A8E" transform="translate(179,478)"/>
<path d="M0 0 C2.3359375 2.1171875 2.3359375 2.1171875 4.375 4.875 C5.06335938 5.77992188 5.75171875 6.68484375 6.4609375 7.6171875 C8 10 8 10 8 12 C6.0625 11.6875 6.0625 11.6875 4 11 C3.67 10.01 3.34 9.02 3 8 C2.34 8 1.68 8 1 8 C0.67 7.01 0.34 6.02 0 5 C-0.7425 4.896875 -1.485 4.79375 -2.25 4.6875 C-5.17014018 3.95746496 -6.73187554 2.93210602 -9 1 C-5.65201696 -0.11599435 -3.50688583 -0.41727502 0 0 Z M-1 12 C1.97 12.495 1.97 12.495 5 13 C4.34 14.65 3.68 16.3 3 18 C1.62437146 16.71034824 0.29233607 15.37310707 -1 14 C-1 13.34 -1 12.68 -1 12 Z " fill="#979C90" transform="translate(305,488)"/>
<path d="M0 0 C0.66 0.33 1.32 0.66 2 1 C1.01 2.485 1.01 2.485 0 4 C0.66 4 1.32 4 2 4 C2 4.66 2 5.32 2 6 C3.32 6 4.64 6 6 6 C6 5.34 6 4.68 6 4 C6.66 4 7.32 4 8 4 C6.63603413 8.09189762 4.65151017 8.61547327 0.9375 10.6875 C-0.71958984 11.62142578 -0.71958984 11.62142578 -2.41015625 12.57421875 C-3.26480469 13.04472656 -4.11945313 13.51523437 -5 14 C-5.33 13.01 -5.66 12.02 -6 11 C-5.67 10.34 -5.34 9.68 -5 9 C-4.34 9 -3.68 9 -3 9 C-3.50603992 6.83125748 -3.99983813 5.00032373 -5 3 C-2.625 1.4375 -2.625 1.4375 0 0 Z " fill="#969C8A" transform="translate(343,497)"/>
<path d="M0 0 C3.53195773 2.35463849 4.37621705 4.13385011 6 8 C6 9.32 6 10.64 6 12 C5.34 12 4.68 12 4 12 C3.67 12.99 3.34 13.98 3 15 C0.27573689 12.64722731 -0.8141763 10.37503669 -2 7 C-1.34 7 -0.68 7 0 7 C0 4.69 0 2.38 0 0 Z " fill="#A8B29E" transform="translate(198,229)"/>
<path d="M0 0 C0.33 0 0.66 0 1 0 C1 3.96 1 7.92 1 12 C0.34 12 -0.32 12 -1 12 C-1.66 13.32 -2.32 14.64 -3 16 C-3.99 15.67 -4.98 15.34 -6 15 C-6.33 12.03 -6.66 9.06 -7 6 C-5.68 5.67 -4.36 5.34 -3 5 C-2.34 6.32 -1.68 7.64 -1 9 C-0.67 6.03 -0.34 3.06 0 0 Z " fill="#B8C0AE" transform="translate(234,184)"/>
<path d="M0 0 C0.33 0 0.66 0 1 0 C1 2.97 1 5.94 1 9 C-1.31 9.33 -3.62 9.66 -6 10 C-7.15941038 6.52176885 -6.70820884 4.54104422 -6 1 C-4.7934375 1.0309375 -4.7934375 1.0309375 -3.5625 1.0625 C-1.06645115 1.29633621 -1.06645115 1.29633621 0 0 Z " fill="#7D8371" transform="translate(298,516)"/>
<path d="M0 0 C2.25 0 2.25 0 5 1 C6.67198768 3.52667787 7.85805571 6.19936568 9 9 C6 10 6 10 2 10 C-0.4294516 6.3558226 -0.16179575 4.28758728 0 0 Z " fill="#A2AA96" transform="translate(237,305)"/>
<path d="M0 0 C3.625 -0.1875 3.625 -0.1875 7 0 C6.67 1.65 6.34 3.3 6 5 C5.34 5 4.68 5 4 5 C4 6.65 4 8.3 4 10 C2.68 10 1.36 10 0 10 C-1.8125 7.625 -1.8125 7.625 -3 5 C-2 3 -2 3 0 0 Z " fill="#8A907F" transform="translate(334,501)"/>
<path d="M0 0 C0.99 0.33 1.98 0.66 3 1 C3 1.66 3 2.32 3 3 C3.99 3.33 4.98 3.66 6 4 C5.34 5.65 4.68 7.3 4 9 C10.27 9 16.54 9 23 9 C23 9.33 23 9.66 23 10 C15.41 10 7.82 10 0 10 C0 6.7 0 3.4 0 0 Z " fill="#798071" transform="translate(385,380)"/>
<path d="M0 0 C2 0 2 0 3.64453125 1.640625 C5.38053347 4.6623695 5.13547312 6.32911435 4.6875 9.75 C4.50767578 11.22726562 4.50767578 11.22726562 4.32421875 12.734375 C4.21722656 13.48203125 4.11023438 14.2296875 4 15 C1.27831335 11.82469891 -0.85559053 9.05745175 -2 5 C-1.51612903 1.51612903 -1.51612903 1.51612903 0 0 Z " fill="#ABB5A1" transform="translate(283,386)"/>
<path d="M0 0 C3.70066609 0.90460727 5.56497978 1.43868358 7.9375 4.5 C8.288125 5.325 8.63875 6.15 9 7 C8.67 7.66 8.34 8.32 8 9 C5.36 8.34 2.72 7.68 0 7 C0 7.66 0 8.32 0 9 C-1.32 8.67 -2.64 8.34 -4 8 C-3.01 8 -2.02 8 -1 8 C-0.34 6.02 0.32 4.04 1 2 C0.34 1.67 -0.32 1.34 -1 1 C-0.67 0.67 -0.34 0.34 0 0 Z " fill="#929988" transform="translate(309,499)"/>
<path d="M0 0 C2.97 0.495 2.97 0.495 6 1 C6.33 1.99 6.66 2.98 7 4 C6.01 4.66 5.02 5.32 4 6 C3.34 6.66 2.68 7.32 2 8 C-1.29279709 7.68134222 -2.86535088 6.45484649 -5 4 C-4.67 3.34 -4.34 2.68 -4 2 C-2.68 2 -1.36 2 0 2 C0 1.34 0 0.68 0 0 Z " fill="#7E8673" transform="translate(309,506)"/>
<path d="M0 0 C1.32 0.66 2.64 1.32 4 2 C4.99 1.34 5.98 0.68 7 0 C7.33 1.65 7.66 3.3 8 5 C7.195625 5.4125 6.39125 5.825 5.5625 6.25 C2.85179986 7.71786667 2.85179986 7.71786667 2.3125 10.125 C2.209375 10.74375 2.10625 11.3625 2 12 C1.01 12.495 1.01 12.495 0 13 C-0.38063221 10.6739143 -0.71269945 8.33944736 -1 6 C-0.67 5.67 -0.34 5.34 0 5 C0.04063832 3.33382885 0.042721 1.66611905 0 0 Z " fill="#7D8472" transform="translate(196,470)"/>
<path d="M0 0 C0.66 0.33 1.32 0.66 2 1 C2 2.32 2 3.64 2 5 C2.66 5 3.32 5 4 5 C4.66 6.98 5.32 8.96 6 11 C4.02 11.33 2.04 11.66 0 12 C-2.21538462 4.61538462 -2.21538462 4.61538462 -1.125 1.5 C-0.75375 1.005 -0.3825 0.51 0 0 Z " fill="#A0A994" transform="translate(288,392)"/>
<path d="M0 0 C2.09715785 3.14573677 2.52004559 5.01456251 3.125 8.6875 C3.29257813 9.68136719 3.46015625 10.67523437 3.6328125 11.69921875 C3.75398437 12.45847656 3.87515625 13.21773437 4 14 C3.01 14.495 3.01 14.495 2 15 C-0.35981813 14.06421005 -2.69631264 13.06652192 -5 12 C-4.175 11.319375 -3.35 10.63875 -2.5 9.9375 C0.36068704 7.15521993 0.36068704 7.15521993 0.3125 3.1875 C0.209375 2.135625 0.10625 1.08375 0 0 Z " fill="#9DA097" transform="translate(230,508)"/>
<path d="M0 0 C0.9590625 0.6496875 0.9590625 0.6496875 1.9375 1.3125 C0.6175 2.6325 -0.7025 3.9525 -2.0625 5.3125 C-2.7225 4.6525 -3.3825 3.9925 -4.0625 3.3125 C-4.7225 3.9725 -5.3825 4.6325 -6.0625 5.3125 C-8.2265625 5.9453125 -8.2265625 5.9453125 -10.6875 6.4375 C-11.50476563 6.60507812 -12.32203125 6.77265625 -13.1640625 6.9453125 C-14.10378906 7.12707031 -14.10378906 7.12707031 -15.0625 7.3125 C-11.20696039 3.14999068 -5.81802552 -1.30608736 0 0 Z " fill="#9B9E95" transform="translate(201.0625,467.6875)"/>
<path d="M0 0 C1.32 0 2.64 0 4 0 C4 0.66 4 1.32 4 2 C4.99 1.67 5.98 1.34 7 1 C7.33 1.66 7.66 2.32 8 3 C11.00259517 3.33218192 11.00259517 3.33218192 12.6875 1.5 C13.3371875 0.7575 13.3371875 0.7575 14 0 C14.99 0.33 15.98 0.66 17 1 C15.5341751 4.86444746 13.526449 6.01174362 10 8 C8.33055479 6.85821872 6.6645052 5.71147095 5 4.5625 C4.071875 3.92441406 3.14375 3.28632813 2.1875 2.62890625 C1.465625 2.09136719 0.74375 1.55382812 0 1 C0 0.67 0 0.34 0 0 Z " fill="#929788" transform="translate(371,438)"/>
<path d="M0 0 C0.99 0.99 1.98 1.98 3 3 C2.34 4.32 1.68 5.64 1 7 C0.01 7 -0.98 7 -2 7 C-2.33 7.99 -2.66 8.98 -3 10 C-4.32 8.35 -5.64 6.7 -7 5 C-4.63707344 2.47411298 -3.33537489 1.11179163 0 0 Z " fill="#8C9182" transform="translate(194,472)"/>
<path d="M0 0 C1.13643966 3.40931897 0.86747764 4.00335456 -0.4375 7.1875 C-0.72496094 7.90292969 -1.01242187 8.61835938 -1.30859375 9.35546875 C-1.53675781 9.89816406 -1.76492188 10.44085938 -2 11 C-0.68 11.66 0.64 12.32 2 13 C0 14 0 14 -1.875 13.5 C-4.30728498 12.92769765 -5.63275318 13.32647371 -8 14 C-7.043419 12.22821947 -6.08467012 10.45760924 -5.125 8.6875 C-4.59132813 7.70136719 -4.05765625 6.71523438 -3.5078125 5.69921875 C-2 3 -2 3 0 0 Z " fill="#989C8E" transform="translate(270,500)"/>
<path d="M0 0 C1.32 0.33 2.64 0.66 4 1 C4 1.66 4 2.32 4 3 C4.66 3 5.32 3 6 3 C6.33 4.65 6.66 6.3 7 8 C5 8 5 8 3.375 6.5 C2.92125 6.005 2.4675 5.51 2 5 C0.02 5.66 -1.96 6.32 -4 7 C-4 6.34 -4 5.68 -4 5 C-3.34 5 -2.68 5 -2 5 C-1.34 3.35 -0.68 1.7 0 0 Z " fill="#8C9183" transform="translate(400,401)"/>
<path d="M0 0 C1.11157015 2.07493094 1.96371011 3.79435726 2.375 6.125 C2.84540342 8.21059622 2.84540342 8.21059622 5.0625 9.25 C5.701875 9.4975 6.34125 9.745 7 10 C4.69 10.33 2.38 10.66 0 11 C-2 8 -2 8 -1.6875 4.9375 C-1 2 -1 2 0 0 Z " fill="#969B8D" transform="translate(378,327)"/>
<path d="M0 0 C0.99 0.33 1.98 0.66 3 1 C2.67 4.63 2.34 8.26 2 12 C-0.672336 8.43688534 -1.77263971 6.15414253 -3 2 C-2.01 1.34 -1.02 0.68 0 0 Z " fill="#A3AD96" transform="translate(265,256)"/>
<path d="M0 0 C1.32 0.66 2.64 1.32 4 2 C4 2.99 4 3.98 4 5 C4.99 4.67 5.98 4.34 7 4 C6.67 5.65 6.34 7.3 6 9 C4.68 9 3.36 9 2 9 C2 8.01 2 7.02 2 6 C0.56249809 4.31201173 0.56249809 4.31201173 -1 3 C-0.67 2.01 -0.34 1.02 0 0 Z " fill="#818974" transform="translate(302,491)"/>
<path d="M0 0 C0.99 0 1.98 0 3 0 C3.33 0.99 3.66 1.98 4 3 C3.34 3 2.68 3 2 3 C2.34444881 5.47266765 2.34444881 5.47266765 3 8 C3.66 8.33 4.32 8.66 5 9 C3.02 9 1.04 9 -1 9 C-1.625 5.625 -1.625 5.625 -2 2 C-1.34 1.34 -0.68 0.68 0 0 Z " fill="#9B9E94" transform="translate(383,345)"/>
<path d="M0 0 C1.0625 2.375 1.0625 2.375 2 5 C1.67 5.66 1.34 6.32 1 7 C-1.97 6.505 -1.97 6.505 -5 6 C-5.33 4.35 -5.66 2.7 -6 1 C-3 0 -3 0 0 0 Z " fill="#9BA790" transform="translate(229,282)"/>
<path d="M0 0 C2.625 1.4375 2.625 1.4375 5 3 C4.67 3.99 4.34 4.98 4 6 C3.67 5.67 3.34 5.34 3 5 C2.67 6.65 2.34 8.3 2 10 C-0.81832513 8.59083743 -1.02593461 6.92219617 -2 4 C-2 3.01 -2 2.02 -2 1 C-1.34 0.67 -0.68 0.34 0 0 Z " fill="#9EA891" transform="translate(225,185)"/>
<path d="M0 0 C2.97 0.495 2.97 0.495 6 1 C6.85856655 4.4342662 6.97591583 6.61682513 6 10 C4.99723227 8.52270825 3.99785546 7.04311423 3 5.5625 C2.443125 4.73878906 1.88625 3.91507812 1.3125 3.06640625 C0 1 0 1 0 0 Z " fill="#959C8C" transform="translate(324,493)"/>
<path d="M0 0 C1.5625 1.8125 1.5625 1.8125 3 4 C2.67 4.99 2.34 5.98 2 7 C0.68 6.67 -0.64 6.34 -2 6 C-2.66 8.64 -3.32 11.28 -4 14 C-4.33 14 -4.66 14 -5 14 C-5.66 11.03 -6.32 8.06 -7 5 C-3.535 4.505 -3.535 4.505 0 4 C0 2.68 0 1.36 0 0 Z " fill="#A2A699" transform="translate(352,479)"/>
<path d="M0 0 C2.00720923 0.28674418 4.0085944 0.61866701 6 1 C6 2.32 6 3.64 6 5 C3.625 6.0625 3.625 6.0625 1 7 C0.34 6.67 -0.32 6.34 -1 6 C-1.042721 4.33388095 -1.04063832 2.66617115 -1 1 C-0.67 0.67 -0.34 0.34 0 0 Z " fill="#7D8473" transform="translate(346,478)"/>
<path d="M0 0 C1.98 0 3.96 0 6 0 C4.75 2.9375 4.75 2.9375 3 6 C0.8125 6.875 0.8125 6.875 -1 7 C-1 3 -1 3 0 0 Z " fill="#7E8573" transform="translate(401,342)"/>
<path d="M0 0 C0.66 0.33 1.32 0.66 2 1 C2 1.66 2 2.32 2 3 C2.928125 3.37125 2.928125 3.37125 3.875 3.75 C6.35068687 5.20628639 6.95125002 6.37812506 8 9 C7.38125 8.79375 6.7625 8.5875 6.125 8.375 C5.42375 8.25125 4.7225 8.1275 4 8 C3.34 8.66 2.68 9.32 2 10 C1.46987262 8.71211992 0.9511671 7.41953322 0.4375 6.125 C0.14746094 5.40570313 -0.14257812 4.68640625 -0.44140625 3.9453125 C-1 2 -1 2 0 0 Z " fill="#9EA890" transform="translate(210,160)"/>
<path d="M0 0 C0.33 0.66 0.66 1.32 1 2 C2.32 1.67 3.64 1.34 5 1 C5.33 2.32 5.66 3.64 6 5 C3.03 4.505 3.03 4.505 0 4 C-1.9451 6.91765 -2.45276317 8.62537285 -3 12 C-3.33 12 -3.66 12 -4 12 C-4 9.03 -4 6.06 -4 3 C-3.01 2.67 -2.02 2.34 -1 2 C-0.67 1.34 -0.34 0.68 0 0 Z " fill="#B4BAAA" transform="translate(257,506)"/>
<path d="M0 0 C0.33 0.66 0.66 1.32 1 2 C1.66 2 2.32 2 3 2 C3 3.32 3 4.64 3 6 C2.01 6.495 2.01 6.495 1 7 C0.01 8.485 0.01 8.485 -1 10 C-1.73080266 8.02253397 -2.39421747 6.01927511 -3 4 C-2.67 3.34 -2.34 2.68 -2 2 C-1.34 2 -0.68 2 0 2 C0 1.34 0 0.68 0 0 Z " fill="#9BA78F" transform="translate(204,239)"/>
<path d="M0 0 C1.20628008 2.33214148 2.1654738 4.49642139 3 7 C2.34 7 1.68 7 1 7 C0.67 7.99 0.34 8.98 0 10 C-2 7 -2 7 -2 4 C-3.32 4.33 -4.64 4.66 -6 5 C-6 4.34 -6 3.68 -6 3 C-4.02 2.01 -2.04 1.02 0 0 Z " fill="#7A826E" transform="translate(227,493)"/>
<path d="M0 0 C3.13986682 1.25594673 4.26898104 1.98897002 6.4375 4.375 C-2.97252278 4.7440205 -2.97252278 4.7440205 -7.5625 2.375 C-4.8252329 -0.47175779 -3.99587954 -0.7010315 0 0 Z " fill="#ABAEA3" transform="translate(397.5625,426.625)"/>
<path d="M0 0 C2.99324263 1.0975223 3.84610901 1.67682892 5.25 4.625 C5.4975 5.40875 5.745 6.1925 6 7 C5.34 7.66 4.68 8.32 4 9 C4 8.34 4 7.68 4 7 C-0.455 6.01 -0.455 6.01 -5 5 C-5 4.67 -5 4.34 -5 4 C-3.02 4 -1.04 4 1 4 C0.67 2.68 0.34 1.36 0 0 Z " fill="#9CA292" transform="translate(401,405)"/>
<path d="M0 0 C0.33 0.66 0.66 1.32 1 2 C0.01 3.32 -0.98 4.64 -2 6 C-2.33 4.35 -2.66 2.7 -3 1 C-2.01 0.67 -1.02 0.34 0 0 Z M-10 3 C-6.89448334 3 -5.64738916 3.5393715 -3 5 C-4.98 5.99 -6.96 6.98 -9 8 C-9.99 7.34 -10.98 6.68 -12 6 C-11.34 5.01 -10.68 4.02 -10 3 Z " fill="#999C8D" transform="translate(394,313)"/>
<path d="M0 0 C0.99 0 1.98 0 3 0 C1.125 5.875 1.125 5.875 0 7 C-1.66617115 7.04063832 -3.33388095 7.042721 -5 7 C-5.66 5.68 -6.32 4.36 -7 3 C-6.34 2.67 -5.68 2.34 -5 2 C-3.68 2.99 -2.36 3.98 -1 5 C-0.67 3.35 -0.34 1.7 0 0 Z " fill="#9EA195" transform="translate(266,516)"/>
<path d="M0 0 C0.66 0.33 1.32 0.66 2 1 C1.01 2.485 1.01 2.485 0 4 C0.66 4 1.32 4 2 4 C2 4.66 2 5.32 2 6 C3.32 6 4.64 6 6 6 C6 5.34 6 4.68 6 4 C6.66 4 7.32 4 8 4 C7 7 7 7 3.9375 8.6875 C2.968125 9.120625 1.99875 9.55375 1 10 C0.01 7.36 -0.98 4.72 -2 2 C-1.34 1.34 -0.68 0.68 0 0 Z " fill="#A7AA9E" transform="translate(343,497)"/>
<path d="M0 0 C0.99 0.66 1.98 1.32 3 2 C3.66 1.67 4.32 1.34 5 1 C5 3.64 5 6.28 5 9 C2 8 2 8 0.9375 6 C0.628125 5.34 0.31875 4.68 0 4 C-0.66 3.67 -1.32 3.34 -2 3 C-1 1 -1 1 0 0 Z " fill="#7E8574" transform="translate(408,411)"/>
<path d="M0 0 C1.65 1.65 3.3 3.3 5 5 C4.34 6.32 3.68 7.64 3 9 C2.01 9 1.02 9 0 9 C-1.125 2.25 -1.125 2.25 0 0 Z " fill="#ADB6A4" transform="translate(250,117)"/>
<path d="M0 0 C2.64 0.33 5.28 0.66 8 1 C7.46375 1.226875 6.9275 1.45375 6.375 1.6875 C3.21499137 3.43382056 0.7323017 5.6402849 -2 8 C-1.125 2.25 -1.125 2.25 0 0 Z " fill="#AFB2A8" transform="translate(384,397)"/>
<path d="M0 0 C1.32 0 2.64 0 4 0 C4.66 1.32 5.32 2.64 6 4 C4.35 4.66 2.7 5.32 1 6 C0.34 4.35 -0.32 2.7 -1 1 C-0.67 0.67 -0.34 0.34 0 0 Z " fill="#ABB5A0" transform="translate(214,167)"/>
<path d="M0 0 C0.33 0 0.66 0 1 0 C1 1.98 1 3.96 1 6 C2.32 5.67 3.64 5.34 5 5 C5 5.66 5 6.32 5 7 C5.66 7.33 6.32 7.66 7 8 C4.69 8.33 2.38 8.66 0 9 C-1.15941038 5.52176885 -0.70820884 3.54104422 0 0 Z " fill="#A5A99F" transform="translate(292,517)"/>
<path d="M0 0 C-1 2 -2 4 -3 6 C-5.475 5.01 -5.475 5.01 -8 4 C-7 1 -7 1 -4.5625 -0.25 C-2 -1 -2 -1 0 0 Z " fill="#7C8373" transform="translate(339,474)"/>
<path d="M0 0 C1.32 0.66 2.64 1.32 4 2 C4 2.66 4 3.32 4 4 C-0.43076923 6.09230769 -0.43076923 6.09230769 -3.3125 5.625 C-3.869375 5.41875 -4.42625 5.2125 -5 5 C-3.35 3.35 -1.7 1.7 0 0 Z " fill="#8D9083" transform="translate(406,344)"/>
<path d="M0 0 C3.15133488 1.83827868 6.11964908 3.75972706 9 6 C8.67 6.66 8.34 7.32 8 8 C4.73045798 7.43628586 3.17424117 6.50037734 1 4 C1.33 3.34 1.66 2.68 2 2 C1.34 2 0.68 2 0 2 C0 1.34 0 0.68 0 0 Z " fill="#BBC1B2" transform="translate(236,104)"/>
<path d="M0 0 C0.66 0 1.32 0 2 0 C2 0.66 2 1.32 2 2 C2.66 2.33 3.32 2.66 4 3 C3.01 4.32 2.02 5.64 1 7 C-0.65 6.67 -2.3 6.34 -4 6 C-3.34 5.195625 -2.68 4.39125 -2 3.5625 C0.10254514 1.41038085 0.10254514 1.41038085 0 0 Z " fill="#7B8171" transform="translate(386,440)"/>
<path d="M0 0 C1.98 0 3.96 0 6 0 C5.67 0.99 5.34 1.98 5 3 C3.35 3.33 1.7 3.66 0 4 C-0.33 4.99 -0.66 5.98 -1 7 C-1.33 6.34 -1.66 5.68 -2 5 C-1.0625 2.375 -1.0625 2.375 0 0 Z " fill="#93988E" transform="translate(378,417)"/>
<path d="M0 0 C0.66 0.33 1.32 0.66 2 1 C2 1.66 2 2.32 2 3 C-0.8125 5.6875 -0.8125 5.6875 -4 8 C-4.99 7.67 -5.98 7.34 -7 7 C-5.71034824 5.62437146 -4.37310707 4.29233607 -3 3 C-2.34 3 -1.68 3 -1 3 C-0.67 2.01 -0.34 1.02 0 0 Z " fill="#B9BFAF" transform="translate(100,104)"/>
<path d="M0 0 C1.48280196 0.78483659 2.9611498 1.57809334 4.4375 2.375 C5.67306641 3.03628906 5.67306641 3.03628906 6.93359375 3.7109375 C9 5 9 5 10 7 C5.545 6.01 5.545 6.01 1 5 C0.67 3.35 0.34 1.7 0 0 Z " fill="#BDC5B7" transform="translate(225,96)"/>
<path d="M0 0 C1.5625 1.8125 1.5625 1.8125 3 4 C2.67 4.99 2.34 5.98 2 7 C-0.5625 8.1875 -0.5625 8.1875 -3 9 C-3.33 8.01 -3.66 7.02 -4 6 C-3.34 6 -2.68 6 -2 6 C-1.34 4.02 -0.68 2.04 0 0 Z " fill="#A8AB9F" transform="translate(407,319)"/>
<path d="M0 0 C1.65 0 3.3 0 5 0 C4.67 1.65 4.34 3.3 4 5 C2.68 5.33 1.36 5.66 0 6 C-1 3 -1 3 0 0 Z " fill="#808477" transform="translate(296,490)"/>
<path d="M0 0 C1.13643966 3.40931897 0.86747764 4.00335456 -0.4375 7.1875 C-0.72496094 7.90292969 -1.01242188 8.61835938 -1.30859375 9.35546875 C-1.53675781 9.89816406 -1.76492187 10.44085938 -2 11 C-2.99 11 -3.98 11 -5 11 C-5 10.01 -5 9.02 -5 8 C-4.0409375 7.690625 -4.0409375 7.690625 -3.0625 7.375 C-0.65074923 6.10461791 -0.65074923 6.10461791 -0.25 2.875 C-0.1675 1.92625 -0.085 0.9775 0 0 Z " fill="#9FA294" transform="translate(224,483)"/>
<path d="M0 0 C0.99 0.33 1.98 0.66 3 1 C2 4 2 4 0 7 C-2 6 -2 6 -3 3 C-2.34 3 -1.68 3 -1 3 C-0.67 2.01 -0.34 1.02 0 0 Z " fill="#898E81" transform="translate(403,322)"/>
<path d="M0 0 C1.60156595 4.00391487 0.4087561 7.07031192 -1 11 C-1.99 11.495 -1.99 11.495 -3 12 C-2.40075776 7.80530429 -1.42500059 3.99000166 0 0 Z " fill="#C2C8B7" transform="translate(116,192)"/>
<path d="M0 0 C0.33 1.65 0.66 3.3 1 5 C-0.98 5 -2.96 5 -5 5 C-4.625 3.0625 -4.625 3.0625 -4 1 C-2 0 -2 0 0 0 Z " fill="#777F6D" transform="translate(279,522)"/>
<path d="M0 0 C2.475 0.99 2.475 0.99 5 2 C5 2.99 5 3.98 5 5 C3.68 5.33 2.36 5.66 1 6 C0.67 4.02 0.34 2.04 0 0 Z " fill="#939689" transform="translate(302,510)"/>
<path d="M0 0 C4.75 1.875 4.75 1.875 7 3 C6.34 4.32 5.68 5.64 5 7 C3.29115995 5.37660195 1.62553283 3.70680947 0 2 C0 1.34 0 0.68 0 0 Z " fill="#7F8673" transform="translate(327,490)"/>
<path d="M0 0 C2.31 0 4.62 0 7 0 C7.33 2.64 7.66 5.28 8 8 C5 4.25 5 4.25 5 2 C3.35 1.67 1.7 1.34 0 1 C0 0.67 0 0.34 0 0 Z " fill="#AAACA4" transform="translate(408,339)"/>
<path d="M0 0 C1.134375 0.020625 2.26875 0.04125 3.4375 0.0625 C0.58443203 2.38722205 -2.10324837 3.8133258 -5.5625 5.0625 C-4.43693182 0.07784091 -4.43693182 0.07784091 0 0 Z " fill="#989D92" transform="translate(396.5625,328.9375)"/>
<path d="M0 0 C0.33 0 0.66 0 1 0 C1.36923077 6.52307692 1.36923077 6.52307692 -0.5 8.9375 C-0.995 9.288125 -1.49 9.63875 -2 10 C-2.25 3.375 -2.25 3.375 0 0 Z " fill="#A9ACA1" transform="translate(398,301)"/>
<path d="M0 0 C1.98 0.66 3.96 1.32 6 2 C5.67 2.99 5.34 3.98 5 5 C2 5 2 5 0 4 C0.33 3.34 0.66 2.68 1 2 C0.34 1.67 -0.32 1.34 -1 1 C-0.67 0.67 -0.34 0.34 0 0 Z " fill="#818777" transform="translate(309,499)"/>
<path d="M0 0 C2.97 0.495 2.97 0.495 6 1 C4.75 2.5625 4.75 2.5625 3 4 C0.8125 3.6875 0.8125 3.6875 -1 3 C-0.67 2.01 -0.34 1.02 0 0 Z " fill="#94978E" transform="translate(218,481)"/>
<path d="M0 0 C0.99 0 1.98 0 3 0 C2.34 3.3 1.68 6.6 1 10 C-1.56687367 6.1496895 -0.83288724 4.41430237 0 0 Z " fill="#B6BFAF" transform="translate(107,353)"/>
<path d="M0 0 C0.33 0.99 0.66 1.98 1 3 C0.01 3.33 -0.98 3.66 -2 4 C-2.33 4.99 -2.66 5.98 -3 7 C-3.99 5.02 -4.98 3.04 -6 1 C-3.03 1.495 -3.03 1.495 0 2 C0 1.34 0 0.68 0 0 Z " fill="#B9C0B2" transform="translate(230,287)"/>
<path d="M0 0 C2.475 0.99 2.475 0.99 5 2 C3.68 3.32 2.36 4.64 1 6 C0.34 5.01 -0.32 4.02 -1 3 C-0.34 3 0.32 3 1 3 C0.67 2.01 0.34 1.02 0 0 Z " fill="#919688" transform="translate(198,467)"/>
<path d="M0 0 C1.32 0 2.64 0 4 0 C4 0.66 4 1.32 4 2 C4.99 1.67 5.98 1.34 7 1 C7.66 2.65 8.32 4.3 9 6 C5.56404834 4.47291037 2.88087546 2.40072955 0 0 Z " fill="#A8AAA1" transform="translate(371,438)"/>
<path d="M0 0 C2.0625 0.4375 2.0625 0.4375 4 1 C4.33 2.65 4.66 4.3 5 6 C4.34 6 3.68 6 3 6 C1.61767557 4.37373596 0.28062485 2.7074998 -1 1 C-0.67 0.67 -0.34 0.34 0 0 Z " fill="#838A79" transform="translate(402,403)"/>
<path d="M0 0 C1.875 0.125 1.875 0.125 4 1 C5.25 4.0625 5.25 4.0625 6 7 C3 5.1875 3 5.1875 0 3 C0 2.01 0 1.02 0 0 Z " fill="#B7BEAB" transform="translate(212,160)"/>
<path d="M0 0 C0 0.66 0 1.32 0 2 C-0.99 2.495 -0.99 2.495 -2 3 C-2.33 3.99 -2.66 4.98 -3 6 C-4.32 5.34 -5.64 4.68 -7 4 C-3.17391304 0 -3.17391304 0 0 0 Z " fill="#BCC5B6" transform="translate(121,92)"/>
<path d="M0 0 C0.66 0 1.32 0 2 0 C1.67 1.65 1.34 3.3 1 5 C-1.31 5 -3.62 5 -6 5 C-6 4.67 -6 4.34 -6 4 C-4.35 4 -2.7 4 -1 4 C-0.67 2.68 -0.34 1.36 0 0 Z " fill="#A7ABA2" transform="translate(251,521)"/>
<path d="M0 0 C0.33 0.99 0.66 1.98 1 3 C1.66 3 2.32 3 3 3 C3.33 3.99 3.66 4.98 4 6 C3.01 6.66 2.02 7.32 1 8 C0 7 0 7 -0.0625 3.4375 C-0.041875 2.303125 -0.02125 1.16875 0 0 Z " fill="#A8AC9E" transform="translate(272,519)"/>
<path d="M0 0 C2.97 0.495 2.97 0.495 6 1 C5.34 2.65 4.68 4.3 4 6 C1.7522025 3.94766315 0.9977758 2.99332739 0 0 Z " fill="#ABB09D" transform="translate(324,493)"/>
<path d="M0 0 C3.68754757 0.49831724 5.60490662 1.10067643 8 4 C7.01 4.33 6.02 4.66 5 5 C4.34 4.67 3.68 4.34 3 4 C3 3.01 3 2.02 3 1 C2.01 1.33 1.02 1.66 0 2 C0 1.34 0 0.68 0 0 Z " fill="#A6A9A0" transform="translate(372,430)"/>
<path d="M0 0 C2.125 0.375 2.125 0.375 4 1 C2.768606 3.46278801 1.21935077 4.42497687 -1 6 C-1.625 4.125 -1.625 4.125 -2 2 C-1.34 1.34 -0.68 0.68 0 0 Z " fill="#ADB8A4" transform="translate(299,417)"/>
<path d="M0 0 C0.66 0.33 1.32 0.66 2 1 C2 1.66 2 2.32 2 3 C0.68 3.33 -0.64 3.66 -2 4 C-2 4.66 -2 5.32 -2 6 C-2.99 5.67 -3.98 5.34 -5 5 C-3.35 3.35 -1.7 1.7 0 0 Z " fill="#BAC2B4" transform="translate(107,99)"/>
<path d="M0 0 C3.3 0.33 6.6 0.66 10 1 C10 1.33 10 1.66 10 2 C9.21625 2.144375 8.4325 2.28875 7.625 2.4375 C5.03578982 2.87798925 5.03578982 2.87798925 3 4 C3 3.34 3 2.68 3 2 C2.01 1.67 1.02 1.34 0 1 C0 0.67 0 0.34 0 0 Z " fill="#BDC3B7" transform="translate(185,82)"/>
</svg>
